<svg id="Layer_2" data-name="Layer 2" xmlns="http://www.w3.org/2000/svg" viewBox="0 0 1908.81 1804.04"><defs><style>.cls-1{fill:none;}.cls-2{fill:#fff;}.cls-3{fill:#7f7353;}</style></defs><polygon points="187.13 665.14 187.13 459.03 954.4 16.05 1721.68 459.03 1721.68 665.14 1735.58 665.14 1735.58 451.01 954.4 0 173.24 451.01 173.24 665.14 187.13 665.14"/><polygon points="1721.68 1130.56 1721.68 1345 954.4 1787.99 187.13 1345 187.13 1130.56 173.24 1130.56 173.24 1353.03 954.4 1804.04 1735.58 1353.03 1735.58 1130.56 1721.68 1130.56"/><polygon points="890.49 809.4 840.46 780.52 790.42 809.4 790.42 867.18 840.46 896.07 890.49 867.18 890.49 809.4"/><polygon points="940.52 722.76 890.49 693.88 840.46 722.76 840.46 780.54 890.49 809.42 940.52 780.54 940.52 722.76"/><polygon points="1040.81 722.76 990.77 693.88 940.74 722.76 940.74 780.54 990.77 809.42 1040.81 780.54 1040.81 722.76"/><polygon points="1090.6 809.4 1040.56 780.52 990.53 809.4 990.53 867.18 1040.56 896.07 1090.6 867.18 1090.6 809.4"/><polygon points="1040.57 896.05 990.53 867.17 940.5 896.05 940.5 953.83 990.53 982.72 1040.57 953.83 1040.57 896.05"/><polygon points="940.52 896.05 890.49 867.17 840.46 896.05 840.46 953.83 890.49 982.72 940.52 953.83 940.52 896.05"/><path d="M179.66,1043.66l-5.53,1.22-5.2,1.15-4.92,1.09-4.69,1.05-4.52,1-4.38,1-4.31,1-4.28,1-4.3,1-4.38,1-4.51,1-4.68,1.1-4.91,1.15-5.19,1.23-5.52,1.31v121.8l5.1-1.22,4.43-1,4.2-1,4.43-1,5.1-1.19V1215l-5.59,1.3-5.3,1.25-5.06,1.19-4.84,1.15-4.67,1.12-4.52,1.08-4.42,1.07-4.34,1-4.31,1-4.3,1.06-4.34,1.07-4.41,1.09L71,1229.63l-4.65,1.17L61.5,1232l-5,1.28-5.29,1.34-5.56,1.43v-38.74l4.36-1.11,3.79-1,3.61-.92,3.79-1,4.37-1.1V923l-4.37,1.1-3.79,1-3.61.91-3.79,1L45.6,928V889.3l5.56-1.42,5.29-1.35,5-1.27L66.33,884,71,882.88l4.52-1.13,4.41-1.09,4.34-1.07,4.3-1.05,4.31-1,4.34-1.06,4.42-1.06,4.52-1.09,4.67-1.11,4.84-1.15,5.06-1.2,5.3-1.24,5.59-1.31V907l-5.1,1.19-4.43,1-4.2,1c-1.42.33-2.87.67-4.43,1l-5.1,1.21v108.38l5.52-1.31,5.19-1.23,4.91-1.15,4.68-1.1,4.51-1,4.38-1,4.3-1,4.28-1,4.31-1,4.38-1,4.52-1,4.69-1,4.92-1.09,5.2-1.15,5.53-1.22V896.17l-5.11,1.12-4.44,1-4.22.94-4.43,1-5.11,1.15V862.61l5.6-1.25,5.31-1.19,5.07-1.12,4.86-1.07,4.68-1,4.54-1,4.43-1,4.36-.94,4.33-.93,4.33-.92,4.37-.92,4.43-.93,4.55-1,4.69-1,4.86-1,5.09-1,5.33-1.09,5.62-1.14v38.74l-4.41.89-3.82.78c-1.23.24-2.42.49-3.64.74l-3.82.78-4.4.91v269.28l4.4-.9,3.82-.79,3.64-.74,3.82-.78,4.41-.88v38.73l-5.62,1.14-5.33,1.08-5.09,1-4.86,1-4.69,1-4.55.95-4.43.93-4.37.93-4.33.92-4.33.92-4.36.94-4.43,1-4.54,1-4.68,1-4.86,1.07-5.07,1.12-5.31,1.19-5.6,1.26v-38.74l5.11-1.14,4.43-1,4.22-.93,4.44-1,5.11-1.12v-121.8Z" transform="translate(-45.6 -97.98)"/><path d="M260.71,1148.63l4.33-.84,3.76-.73,3.57-.7,3.76-.72,4.33-.83q.54-2.94,1.08-5.83t1.06-5.72c.35-1.89.69-3.77,1-5.63s.68-3.71,1-5.54.68-3.64,1-5.45.66-3.58,1-5.36.66-3.53,1-5.28.64-3.48,1-5.2.64-3.43.95-5.13.63-3.39.94-5.06l.92-5c.31-1.65.61-3.3.91-4.93l.9-4.87c.3-1.61.6-3.21.89-4.81s.59-3.18.88-4.76.59-3.14.88-4.71.57-3.11.86-4.66.57-3.09.85-4.62.57-3.06.85-4.59.57-3,.85-4.55.55-3,.83-4.52.56-3,.83-4.49.56-3,.83-4.47.55-3,.83-4.44.54-3,.82-4.44l.81-4.41c.28-1.48.55-2.94.82-4.41s.55-2.94.82-4.41l.81-4.4c.27-1.47.55-2.93.82-4.4s.54-2.94.82-4.41l.81-4.42c.28-1.47.55-2.95.83-4.43s.54-3,.82-4.45.55-3,.83-4.46.55-3,.83-4.49l.84-4.52.84-4.54c.28-1.52.56-3,.85-4.58s.57-3.08.86-4.62.57-3.1.86-4.66.58-3.13.87-4.71.59-3.16.88-4.75.6-3.19.89-4.81l.91-4.86c.3-1.63.6-3.27.91-4.92s.61-3.31.92-5,.63-3.36.94-5,.63-3.4.95-5.12.64-3.45,1-5.19.65-3.51,1-5.28.66-3.55,1-5.35.67-3.61,1-5.43.68-3.67,1-5.53.69-3.73,1-5.62.71-3.79,1.06-5.71.72-3.85,1.08-5.81l-4.72.84-4.12.73-4.72.85V829.72l5.73-1,5.43-1,5.16-.91,4.94-.87,4.76-.82,4.61-.8,4.51-.77,4.45-.76,4.44-.75,4.45-.75,4.51-.75,4.62-.76,4.76-.79,4.95-.8,5.17-.84,5.44-.87,5.75-.91v38.74l-4.61.73-4,.64-4.6.74q.57,2.9,1.13,5.75t1.11,5.64q.56,2.79,1.1,5.54c.36,1.84.72,3.65,1.07,5.45s.71,3.59,1.06,5.36.69,3.53,1,5.27l1,5.19q.51,2.58,1,5.11l1,5c.32,1.67.65,3.32,1,5s.65,3.28,1,4.9.63,3.23.95,4.83.63,3.19.94,4.77l.93,4.72c.31,1.56.61,3.11.92,4.66s.61,3.09.91,4.62l.9,4.57c.3,1.52.59,3,.89,4.53s.59,3,.89,4.5.58,3,.88,4.47l.87,4.44.87,4.41.87,4.4.86,4.38c.29,1.46.57,2.91.86,4.37s.57,2.9.86,4.36l.86,4.35c.28,1.45.57,2.91.85,4.36s.58,2.9.86,4.36.58,2.91.86,4.37l.87,4.38c.28,1.46.57,2.93.86,4.4s.58,2.94.87,4.41l.88,4.44c.29,1.49.58,3,.88,4.47s.59,3,.88,4.51l.9,4.53.9,4.58c.3,1.53.6,3.07.91,4.62s.61,3.11.92,4.67l.93,4.72c.31,1.59.62,3.18.94,4.78s.63,3.22.95,4.84.64,3.26,1,4.9.65,3.3,1,5,.66,3.35,1,5,.67,3.4,1,5.12.68,3.45,1,5.2.69,3.51,1,5.28.7,3.57,1.06,5.37.71,3.63,1.07,5.46l1.09,5.56q.55,2.81,1.12,5.66t1.13,5.76l4.95-.72,4.25-.62,4.26-.62,4.94-.71v38.74l-5.67.81-5.36.78-5.08.74-4.85.71-4.67.7-4.53.68-4.44.67-4.4.67-4.39.67L411,1161l-4.52.71-4.67.73-4.85.77-5.07.81-5.35.86-5.66.92V1127l4.75-.78,4.13-.66,3.91-.63,4.13-.66,4.76-.75q-.57-2.82-1.1-5.44c-.35-1.76-.69-3.45-1-5.1s-.65-3.24-1-4.81-.63-3.08-.93-4.57l-.88-4.41q-.43-2.16-.87-4.29c-.28-1.41-.57-2.82-.85-4.23s-.57-2.81-.85-4.23-.57-2.84-.87-4.29l-.88-4.4c-.3-1.5-.61-3-.92-4.58s-.64-3.16-1-4.8-.67-3.34-1-5.1-.71-3.56-1.09-5.43l-5.58.9-5.17.85-4.85.79-4.6.77-4.45.74-4.36.74-4.36.74-4.44.76-4.61.79-4.84.84-5.16.9-5.57,1-1,5.43c-.32,1.75-.64,3.45-.94,5.1s-.6,3.26-.88,4.83-.57,3.1-.85,4.6-.54,3-.81,4.43-.53,2.89-.79,4.31-.51,2.83-.77,4.23l-.77,4.21-.78,4.23c-.26,1.42-.52,2.85-.78,4.31l-.82,4.43c-.27,1.5-.55,3-.84,4.6s-.58,3.18-.88,4.83l-.94,5.11-1,5.43,4.5-.81,3.91-.7,3.71-.66,3.91-.69,4.5-.79v38.74l-5.71,1-5.39,1-5.11.92-4.87.87-4.7.85-4.55.84-4.47.82-4.41.81-4.42.83-4.46.83-4.55.86-4.69.89-4.87.93-5.1,1-5.38,1-5.69,1.11v-38.74Zm78.37-121.43,5.38-.94,4.89-.84,4.55-.78,4.33-.74,4.26-.72,4.34-.73,4.54-.76,4.9-.81,5.38-.88q-.56-2.82-1.08-5.53t-1.05-5.3c-.34-1.74-.67-3.43-1-5.1s-.65-3.31-1-4.92-.63-3.2-.94-4.76-.61-3.1-.91-4.62-.59-3-.88-4.5-.58-3-.87-4.41-.57-2.9-.85-4.33-.56-2.86-.84-4.28l-.84-4.25c-.28-1.41-.55-2.82-.83-4.23l-.84-4.25-.84-4.27c-.28-1.44-.57-2.88-.85-4.33l-.87-4.41c-.29-1.48-.59-3-.88-4.5s-.61-3.06-.91-4.62l-.94-4.75c-.32-1.61-.64-3.25-1-4.92s-.66-3.36-1-5.1-.69-3.49-1-5.3-.72-3.64-1.09-5.52c-.36,1.92-.7,3.81-1,5.65s-.68,3.66-1,5.43-.64,3.52-1,5.23-.63,3.4-.93,5-.61,3.29-.9,4.89l-.88,4.75c-.29,1.56-.57,3.11-.86,4.63s-.55,3-.83,4.53-.55,3-.82,4.45-.54,2.94-.81,4.39-.54,2.91-.8,4.35-.54,2.89-.8,4.33-.53,2.89-.8,4.34-.53,2.89-.8,4.35-.54,2.91-.81,4.39-.55,3-.82,4.45l-.84,4.53c-.28,1.53-.56,3.07-.85,4.63s-.58,3.15-.88,4.76l-.9,4.89c-.31,1.66-.62,3.34-.93,5l-1,5.24c-.32,1.77-.66,3.58-1,5.43S339.44,1025.27,339.08,1027.2Z" transform="translate(-45.6 -97.98)"/><path d="M504.56,1147.6c-1.35-1.37-2.62-2.68-3.84-3.93l-3.52-3.59c-1.12-1.16-2.21-2.27-3.27-3.35l-3.11-3.18-3-3.09-3-3.1-3.11-3.17-3.28-3.33-3.51-3.58-3.83-3.9V844.1l3.5-4.53,3.23-4.18,3-3.9,2.87-3.7,2.78-3.58c.91-1.19,1.82-2.36,2.74-3.54s1.84-2.38,2.78-3.58l2.86-3.7,3-3.88,3.23-4.16,3.51-4.5,5.6-.73,5.29-.67,5-.64,4.79-.6,4.62-.57,4.48-.55,4.39-.54,4.34-.52,4.35-.52,4.39-.52,4.48-.52,4.62-.54,4.8-.55,5-.57,5.3-.59,5.61-.62,3.64,4,3.32,3.7,3.1,3.44,2.95,3.28,2.87,3.2,2.88,3.2,2.94,3.29,3.11,3.46,3.33,3.72,3.63,4.06v50.65l-5.56.57-5,.52-4.7.49-4.47.48-4.4.47-4.47.48-4.69.51-5.05.56-5.56.63V831.69l-5.32.61-4.93.56-4.63.54-4.4.52-4.24.5-4.16.5-4.16.5-4.24.52-4.39.54-4.63.57-4.93.62-5.31.68v269.28l5.31-.67,4.93-.62,4.63-.57,4.39-.55,4.24-.51,4.16-.51,4.16-.49,4.24-.51,4.4-.51,4.63-.54,4.93-.57,5.32-.6v-52.52l5.56-.62,5.05-.56,4.69-.51,4.47-.49,4.4-.47,4.47-.47,4.7-.49,5-.53,5.56-.56v52.51l-3.32,4.39-3.06,4-2.86,3.78c-.92,1.23-1.83,2.42-2.71,3.6s-1.77,2.33-2.63,3.48l-2.61,3.45-2.63,3.48c-.88,1.18-1.79,2.37-2.71,3.6l-2.86,3.8L585,1134l-3.32,4.41-5.61.62-5.3.59-5,.57-4.8.55-4.62.53-4.48.53-4.39.52-4.35.51-4.34.53-4.39.53-4.48.55-4.62.57-4.79.6-5,.64-5.29.68Z" transform="translate(-45.6 -97.98)"/><path d="M722.54,955.69c-.82,1.77-1.6,3.47-2.37,5.11s-1.49,3.23-2.21,4.76l-2.08,4.49-2,4.26L712,978.42l-1.86,4c-.61,1.33-1.23,2.65-1.84,4l-1.87,4q-.93,2-1.9,4.11c-.65,1.39-1.3,2.81-2,4.27s-1.36,2.95-2.08,4.49-1.44,3.13-2.21,4.78l-2.37,5.12v75.61l4.47-.35,3.87-.3,3.68-.28,3.88-.3,4.46-.33V1126l-5.79.44-5.48.42-5.21.4-5,.39-4.8.39-4.65.38-4.55.38-4.49.37-4.47.39-4.49.38-4.54.4-4.66.41-4.79.44-5,.45-5.21.48-5.47.52-5.78.55v-38.73l4.46-.43,3.87-.37,3.67-.34,3.88-.36,4.45-.41V823.26l-4.45.4-3.88.36-3.67.35-3.87.36-4.46.43V786.43l5.78-.56,5.47-.51,5.21-.48,5-.46,4.79-.43,4.66-.41,4.54-.4,4.49-.39,4.47-.38,4.49-.38,4.55-.37,4.65-.38,4.8-.39,5-.39,5.21-.41,5.48-.42,5.79-.43V818l-4.46.34-3.88.29-3.68.28-3.87.3-4.47.36v111l2.42-5.22,2.32-5c.77-1.64,1.51-3.26,2.25-4.85s1.46-3.16,2.17-4.7,1.42-3.05,2.11-4.55l2.05-4.42,2-4.32,2-4.22q1-2.09,1.92-4.14L717,885l1.86-4c.62-1.33,1.24-2.67,1.86-4s1.23-2.66,1.84-4l1.85-4,1.85-4c.62-1.34,1.25-2.68,1.87-4s1.26-2.7,1.89-4.07,1.28-2.74,1.92-4.13l2-4.21c.66-1.41,1.32-2.85,2-4.3l2-4.41q1-2.24,2.11-4.53l2.17-4.67,2.25-4.83,2.33-5,2.41-5.19-5.27.35-4.54.31-4.54.31-5.27.37V778.27l5.52-.38,5.21-.36,5-.33,4.72-.31,4.54-.3,4.42-.28,4.32-.27,4.28-.26,4.28-.26,4.32-.25,4.41-.26,4.55-.25,4.72-.27,4.95-.26L800,774l5.52-.28V812.4l-4.28.22-3.68.19-3.69.2-4.28.23c-.84,1.78-1.66,3.5-2.45,5.19l-2.33,4.92-2.22,4.7-2.12,4.5-2.05,4.33-2,4.21-1.93,4.1c-.65,1.36-1.28,2.71-1.91,4l-1.89,4c-.63,1.33-1.26,2.67-1.9,4s-1.26,2.69-1.9,4L765,865.42c-.65,1.38-1.32,2.78-2,4.21l-2,4.34-2.13,4.51q-1.08,2.31-2.22,4.71l-2.32,4.95c-.8,1.69-1.61,3.42-2.45,5.21.5,1.93,1,3.83,1.49,5.72s1,3.74,1.46,5.58l1.43,5.44q.71,2.7,1.39,5.32l1.36,5.21q.68,2.57,1.33,5.09t1.31,5q.64,2.47,1.28,4.9l1.26,4.81c.41,1.59.82,3.16,1.23,4.73s.82,3.11,1.22,4.65.8,3.08,1.2,4.6.79,3,1.19,4.53.78,3,1.17,4.49.78,3,1.16,4.45.77,2.94,1.15,4.41.77,2.92,1.15,4.38l1.14,4.37,1.14,4.35,1.14,4.36c.38,1.45.76,2.9,1.13,4.35s.76,2.91,1.15,4.37l1.14,4.39c.39,1.46.77,2.94,1.16,4.41l1.16,4.45,1.17,4.49c.39,1.51.79,3,1.19,4.54s.79,3.06,1.2,4.6.81,3.1,1.22,4.67.82,3.14,1.23,4.73.84,3.2,1.26,4.82l1.28,4.91,1.31,5,1.33,5.1,1.36,5.22,1.39,5.34,1.43,5.46q.72,2.76,1.46,5.6c.49,1.88,1,3.8,1.5,5.73l4.48-.23,3.85-.19,3.86-.19,4.48-.22v38.74l-5.34.26-4.92.24-4.61.24-4.37.22-4.23.23-4.19.22-4.23.24-4.37.25-4.61.26-4.92.29-5.34.32q-.75-2.86-1.49-5.65t-1.45-5.49q-.72-2.71-1.41-5.35l-1.37-5.22c-.46-1.71-.9-3.41-1.35-5.08s-.88-3.34-1.31-5-.86-3.26-1.28-4.87-.84-3.19-1.26-4.76-.82-3.13-1.23-4.67l-1.21-4.6c-.4-1.52-.8-3-1.2-4.52s-.78-3-1.17-4.46l-1.17-4.41c-.38-1.47-.77-2.92-1.15-4.37s-.77-2.9-1.15-4.34-.76-2.87-1.13-4.31l-1.14-4.3c-.38-1.43-.75-2.86-1.13-4.29l-1.14-4.29-1.13-4.31c-.39-1.44-.77-2.89-1.15-4.34s-.77-2.9-1.15-4.36-.78-2.93-1.17-4.41-.78-3-1.17-4.46-.8-3-1.2-4.52-.8-3-1.21-4.58-.82-3.1-1.23-4.67-.84-3.16-1.26-4.76l-1.28-4.85q-.64-2.46-1.31-5t-1.34-5.08c-.46-1.71-.91-3.44-1.38-5.2s-.93-3.53-1.41-5.33-1-3.63-1.45-5.48S723.05,957.6,722.54,955.69Z" transform="translate(-45.6 -97.98)"/><path d="M1263.39,1062.34l-1.33-5.71q-.64-2.82-1.29-5.57t-1.26-5.43q-.63-2.67-1.23-5.3t-1.21-5.18q-.6-2.55-1.18-5.06t-1.15-5l-1.13-4.86c-.38-1.61-.75-3.2-1.11-4.78s-.74-3.14-1.1-4.7-.72-3.09-1.07-4.62-.71-3-1.06-4.56-.71-3-1-4.51-.7-3-1-4.45-.69-2.95-1-4.42l-1-4.38c-.34-1.46-.67-2.91-1-4.36s-.68-2.9-1-4.35-.68-2.89-1-4.33-.67-2.89-1-4.34-.67-2.89-1-4.34l-1-4.36-1-4.38c-.34-1.46-.68-2.93-1-4.41s-.68-3-1-4.45l-1-4.51c-.35-1.5-.71-3-1.06-4.55l-1.08-4.62c-.36-1.55-.72-3.12-1.09-4.69s-.74-3.17-1.11-4.78-.75-3.22-1.14-4.85-.76-3.29-1.15-5l-1.18-5.06q-.6-2.55-1.2-5.17l-1.24-5.29c-.41-1.78-.83-3.59-1.26-5.41s-.86-3.68-1.29-5.56-.88-3.77-1.33-5.69v203.73l4.46.26,3.88.23,3.69.22,3.88.24,4.46.28v38.73l-5.55-.34-5.27-.32-5-.3-4.82-.28-4.63-.26-4.5-.26-4.39-.23-4.32-.24-4.29-.22-4.28-.22-4.33-.22-4.39-.21-4.5-.22-4.63-.21-4.82-.22-5-.22-5.27-.23-5.56-.23v-38.73l4.55.19,4,.16,3.75.17,4,.17,4.55.21V811.52l-4.55-.2-4-.18-3.75-.16-4-.17-4.55-.19V771.89l5.65.23,5.34.23,5.08.22,4.86.22,4.68.22,4.54.22,4.44.22,4.38.22,4.35.22,4.38.23,4.44.24,4.53.25,4.68.26,4.86.28,5.08.29,5.34.32,5.64.35q.6,2.83,1.18,5.57t1.14,5.37q.55,2.64,1.1,5.2t1.06,5l1,4.88c.34,1.61.67,3.19,1,4.75s.65,3.11,1,4.64.64,3,1,4.54.63,3,.94,4.44.62,2.93.93,4.38.61,2.9.91,4.33.61,2.86.91,4.29.61,2.84.91,4.26l.9,4.26.9,4.26c.3,1.43.6,2.85.91,4.29s.61,2.87.91,4.33.62,2.91.93,4.38.63,3,.94,4.45.64,3,1,4.54.66,3.07,1,4.64.66,3.15,1,4.75.69,3.24,1,4.89.7,3.33,1.06,5,.73,3.44,1.1,5.2.76,3.55,1.14,5.38.78,3.68,1.18,5.57q.64-2.85,1.26-5.61c.41-1.84.82-3.64,1.21-5.41s.79-3.51,1.17-5.22.76-3.4,1.14-5.06l1.09-4.9,1.07-4.77c.35-1.57.7-3.11,1-4.64s.69-3,1-4.55.67-3,1-4.46.66-2.94,1-4.39.65-2.91,1-4.35l1-4.3c.33-1.44.65-2.87,1-4.29l1-4.29,1-4.31c.33-1.44.65-2.89,1-4.34s.65-2.92,1-4.39.66-3,1-4.46.68-3,1-4.55.69-3.07,1-4.64.71-3.15,1.07-4.76.72-3.24,1.1-4.9.74-3.34,1.13-5,.77-3.45,1.17-5.21.8-3.57,1.21-5.41.83-3.7,1.26-5.6l5.61.43,5.31.42,5,.4,4.83.39,4.65.39,4.51.38,4.41.37,4.35.38,4.33.37,4.35.39,4.4.39,4.51.41,4.65.43,4.83.45,5,.47,5.31.51,5.6.55v38.73l-4.46-.43-3.87-.37-3.67-.36-3.88-.36-4.45-.42v269.29l4.45.42,3.88.36,3.67.35,3.87.37,4.46.44v38.73l-5.54-.54-5.26-.5-5-.47-4.81-.45-4.63-.43-4.48-.4-4.39-.4-4.31-.38-4.28-.37-4.28-.37-4.31-.37-4.38-.37-4.49-.37-4.63-.37-4.81-.39-5-.4-5.27-.41-5.54-.42v-38.73l4.46.34,3.87.29,3.68.29,3.88.31,4.46.36V885.5c-.46,1.92-.91,3.8-1.36,5.66l-1.33,5.52c-.43,1.81-.87,3.6-1.29,5.37s-.85,3.52-1.26,5.25-.83,3.43-1.24,5.12-.8,3.36-1.2,5l-1.18,4.91c-.39,1.62-.78,3.22-1.16,4.81s-.76,3.16-1.14,4.73-.74,3.1-1.11,4.64-.74,3.06-1.1,4.57-.73,3-1.09,4.51-.71,3-1.07,4.46-.71,3-1.06,4.41l-1,4.37-1.05,4.35c-.34,1.44-.69,2.88-1,4.32s-.69,2.88-1,4.31-.69,2.87-1,4.31-.69,2.87-1,4.31-.7,2.88-1,4.33l-1.05,4.34-1,4.38c-.35,1.46-.71,2.93-1.06,4.41s-.71,3-1.07,4.46-.72,3-1.09,4.52-.73,3-1.1,4.58-.74,3.08-1.11,4.65-.76,3.13-1.14,4.73-.77,3.19-1.16,4.81l-1.18,4.92q-.6,2.49-1.21,5t-1.23,5.13q-.63,2.61-1.26,5.26l-1.3,5.39c-.43,1.82-.88,3.66-1.32,5.53s-.91,3.75-1.37,5.67Z" transform="translate(-45.6 -97.98)"/><path d="M1444.55,1102.59l4.45.52,3.87.46,3.66.44,3.87.46,4.45.54V835.72l-5.09-.61-4.53-.55-4.2-.5-4.09-.48-4.2-.49-4.54-.52-5.09-.58v50.65l-5.48-.62-4.94-.55-4.57-.5-4.39-.48-4.4-.48-4.57-.48-4.94-.52-5.49-.58V789.05l5.76.6,5.61.59,5.48.58,5.34.58,5.22.58,5.11.57,5,.56,4.91.56,4.82.55,4.73.55,4.66.55,4.6.55,4.54.54,4.49.55,4.45.54,4.42.55,4.39.55,4.38.55,4.36.56,4.37.56,4.37.56,4.39.58,4.42.58,4.44.59,4.49.61,4.53.61,4.59.63,4.65.64,4.73.66,4.8.67,4.9.7,5,.71,5.1.74,5.2.75,5.32.79,5.46.81,5.58.84,5.74.87V902l-5.46-.83-4.92-.74-4.56-.68-4.38-.65-4.37-.64-4.56-.66-4.92-.71-5.47-.78V845.65l-5.07-.72-4.53-.63-4.19-.58-4.08-.57-4.19-.57-4.53-.61-5.08-.69v269.29l5.17.7,4.49.6,4.26.59,4.49.62,5.16.72v38.73l-5.66-.79-5.38-.74-5.12-.7-4.91-.66-4.73-.63-4.59-.61-4.48-.59-4.41-.57-4.38-.56-4.37-.56-4.41-.56L1475,1145l-4.59-.57-4.74-.59-4.91-.59-5.14-.62-5.38-.64-5.68-.67v-38.73Z" transform="translate(-45.6 -97.98)"/><path d="M1729.05,1024.85l-5.55-1.07-5.23-1-4.94-.94-4.72-.89-4.53-.85-4.42-.82-4.33-.8-4.31-.79-4.34-.8-4.41-.8-4.54-.81-4.72-.85-5-.88-5.23-.92-5.57-1v121.79l5.15.9,4.47.79,4.24.75,4.47.79,5.14.93v38.73l-5.64-1-5.35-.95-5.1-.9-4.89-.86-4.71-.82-4.57-.79-4.46-.76-4.39-.75-4.36-.73-4.35-.73-4.39-.74-4.47-.73-4.57-.76-4.72-.76-4.89-.8-5.12-.81-5.36-.86-5.65-.89V1123l4.43.7,3.85.61,3.65.58,3.85.61,4.43.72V856.89l-4.43-.71-3.85-.62L1602,855l-3.85-.61-4.43-.7V814.94l5.65.89,5.36.85,5.12.82,4.89.79,4.72.77,4.57.75,4.47.74,4.39.73,4.35.73,4.36.74,4.39.74,4.46.77,4.57.79,4.71.82,4.89.85,5.1.9,5.35,1,5.64,1v38.73l-5.14-.92-4.47-.8-4.24-.75-4.47-.78-5.15-.9V972.55l5.57,1,5.23.93,5,.87,4.72.85,4.54.82,4.41.8,4.34.79,4.31.79,4.33.8,4.42.82,4.53.85,4.72.89,4.94.94,5.23,1,5.55,1.07V877.35l-5.13-1-4.46-.85-4.24-.81-4.46-.84-5.13-1V834.16l5.63,1.06,5.34,1,5.09,1,4.88.94,4.7.91,4.55.88,4.45.88,4.37.86,4.34.86,4.34.87,4.37.87,4.44.9,4.55.93,4.69.95,4.87,1,5.08,1.05,5.33,1.11,5.61,1.18v38.74l-4.4-.93-3.82-.8-3.63-.76-3.83-.79-4.4-.9v269.28l4.4.91,3.83.79,3.63.76,3.82.8,4.4.92v38.74l-5.61-1.18-5.33-1.12-5.08-1-4.87-1-4.69-1-4.55-.92-4.44-.9-4.37-.88-4.34-.86-4.34-.87-4.37-.86-4.45-.87-4.55-.89-4.7-.91-4.88-.93-5.09-1-5.34-1-5.63-1v-38.74l5.13,1,4.46.84,4.24.81,4.46.85,5.13,1V1024.85Z" transform="translate(-45.6 -97.98)"/><path d="M1810.86,1110.88l5.49,1.19,5,1.09,4.63,1,4.41,1,4.35,1,4.41,1,4.62,1,5,1.13,5.48,1.24V1173l5.56,1.27,5.15,1.19,4.83,1.12,4.59,1.07,4.43,1,4.35,1,4.35,1,4.42,1,4.59,1.1,4.82,1.16,5.15,1.25,5.54,1.35V1064.9l-5-2.34-4.78-2.22-4.57-2.11-4.37-2-4.21-1.93-4.09-1.87-4-1.82-3.93-1.79-3.9-1.77-3.89-1.77-3.93-1.78-4-1.8-4.09-1.84L1853,1038l-4.38-2-4.57-2-4.8-2.13c-1.64-.73-3.32-1.48-5.06-2.24-1-1.58-2-3.06-2.94-4.48s-1.83-2.76-2.68-4.06l-2.49-3.77-2.38-3.59-2.33-3.53-2.38-3.59-2.49-3.77q-1.27-1.93-2.68-4l-3-4.45V894.11l3.84-3.6,3.51-3.3,3.28-3.06,3.11-2.91,3-2.84,3-2.83,3.11-2.9,3.27-3,3.51-3.27,3.83-3.57,5.42,1.22,5.13,1.17,4.87,1.12,4.67,1.07,4.48,1,4.36,1,4.25,1,4.2,1,4.17,1,4.2,1,4.25,1,4.35,1,4.48,1.08,4.65,1.13,4.87,1.19,5.11,1.26,5.4,1.33,3,4.47c1,1.43,1.89,2.8,2.78,4.14s1.76,2.63,2.61,3.89l2.47,3.69,2.39,3.57,2.35,3.51,2.34,3.5,2.39,3.58c.81,1.2,1.63,2.44,2.47,3.7s1.71,2.56,2.61,3.9l2.77,4.16c1,1.44,2,2.93,3,4.49v50.65l-5.35-1.37-4.88-1.24-4.52-1.15-4.32-1.08-4.24-1.07-4.32-1.07-4.53-1.13-4.88-1.2-5.37-1.32V917.41l-5.54-1.36-5.15-1.24-4.82-1.17-4.59-1.09-4.42-1.06-4.35-1-4.35-1-4.43-1-4.59-1.08-4.83-1.12-5.15-1.19-5.56-1.27v91.63l5,2.24,4.79,2.14,4.57,2,4.38,2,4.22,1.9,4.08,1.84,4,1.8,3.93,1.78,3.89,1.77,3.89,1.77,3.92,1.8,4,1.82,4.08,1.87,4.21,1.94,4.37,2,4.56,2.1,4.78,2.22,5,2.35,3.18,4.64,2.86,4.18,2.65,3.88c.86,1.26,1.7,2.49,2.55,3.72l2.54,3.73,2.65,3.88,2.86,4.19,3.17,4.66v133.71l-3.93,3.89-3.59,3.54c-1.14,1.14-2.24,2.23-3.32,3.29l-3.17,3.14-3.12,3.09-3.18,3.15-3.32,3.3-3.59,3.56-3.94,3.92-5.4-1.34-5.11-1.25-4.87-1.19-4.65-1.13-4.48-1.08-4.35-1-4.25-1-4.2-1-4.17-1-4.2-1-4.25-1-4.36-1-4.48-1-4.67-1.08-4.87-1.11-5.13-1.17-5.42-1.23-3.22-4.44-3-4.12-2.8-3.87-2.66-3.66-2.57-3.54-2.52-3.47-2.52-3.47-2.57-3.54-2.67-3.66-2.8-3.84c-1-1.33-2-2.69-3-4.11l-3.22-4.42v-52.51Z" transform="translate(-45.6 -97.98)"/><circle class="cls-1" cx="954.4" cy="387.78" r="88.41"/><path d="M1000,400.61a85.15,85.15,0,1,1-85.15,85.15A85.15,85.15,0,0,1,1000,400.61m0-3.4a88.5,88.5,0,0,0-62.62,25.94,88.56,88.56,0,0,0-19,28.14,88.52,88.52,0,0,0,8.16,84,88.92,88.92,0,0,0,23.92,23.91,88.38,88.38,0,0,0,99,0,88.61,88.61,0,0,0,32.08-39,88.47,88.47,0,0,0-8.16-84,88.92,88.92,0,0,0-23.92-23.91A88.05,88.05,0,0,0,1000,397.21Z" transform="translate(-45.6 -97.98)"/><path d="M1000,348.61a136.85,136.85,0,1,0,136.85,136.84A136.85,136.85,0,0,0,1000,348.61Zm122.85,189a133.65,133.65,0,0,1-70.95,71,132.17,132.17,0,0,1-25,7.77,134.56,134.56,0,0,1-53.74,0,132.71,132.71,0,0,1-47.68-20.06,133.65,133.65,0,0,1-48.3-58.66,133.18,133.18,0,0,1,12.29-126.44,133.4,133.4,0,0,1,221.12,0,133.4,133.4,0,0,1,12.29,126.44Z" transform="translate(-45.6 -97.98)"/><path class="cls-1" d="M1011.8,379.45l2.76.38,3.17,8.31,5.88.81-3.93-9.54a9.39,9.39,0,0,0,2.44-1.25,8.57,8.57,0,0,0,1.8-2,7.13,7.13,0,0,0,1.14-3.18,7.22,7.22,0,0,0-.2-2.93,7,7,0,0,0-1.33-2.56,8.14,8.14,0,0,0-2.34-1.94,8.86,8.86,0,0,0-3.21-1l-9.38-1.29-3.2,23.17,5.34.73Z" transform="translate(-45.6 -97.98)"/><path class="cls-1" d="M953.72,389.63a12.24,12.24,0,0,0,3.61,2.7,11.32,11.32,0,0,0,4.3,1.12,11.54,11.54,0,0,0,8.41-3.06,11.38,11.38,0,0,0,2.57-3.63,12.17,12.17,0,0,0,1-4.38,12.47,12.47,0,0,0-3.2-8.78,12.06,12.06,0,0,0-3.61-2.71,11.31,11.31,0,0,0-15.28,5.56,12.28,12.28,0,0,0-1,4.41,12.4,12.4,0,0,0,3.2,8.77Z" transform="translate(-45.6 -97.98)"/><path class="cls-1" d="M1032.68,391.28a11.16,11.16,0,0,0,3.82,2.5,11.21,11.21,0,0,0,8.83-.19A12.24,12.24,0,0,0,1049,391a12.36,12.36,0,0,0,3.45-8.68,12.12,12.12,0,0,0-.9-4.43,11.35,11.35,0,0,0-10.78-7,11.42,11.42,0,0,0-4.33,1,12.18,12.18,0,0,0-3.69,2.61,11.9,11.9,0,0,0-2.57,4,11.77,11.77,0,0,0-.88,4.68,12.15,12.15,0,0,0,.9,4.42A11.24,11.24,0,0,0,1032.68,391.28Z" transform="translate(-45.6 -97.98)"/><polygon class="cls-1" points="890.65 311.56 883.8 302.08 895.01 308.4 897.72 306.44 895.23 293.81 902.08 303.29 906.45 300.13 892.73 281.18 888.82 284.01 892.34 301.86 876.49 292.93 872.58 295.76 886.29 314.71 890.65 311.56"/><polygon class="cls-1" points="1018.91 312 1021.92 307.76 1012.38 301 1014.74 297.67 1023.22 303.68 1026.23 299.44 1017.74 293.42 1019.89 290.39 1029.13 296.94 1032.14 292.7 1018.5 283.04 1004.98 302.13 1018.91 312"/><polygon class="cls-1" points="940.43 289.54 939.13 275.86 949.86 288.64 954.66 288.18 952.44 264.89 947.08 265.4 948.39 279.08 937.66 266.3 932.85 266.76 935.07 290.05 940.43 289.54"/><path class="cls-1" d="M1075.62,434.77a91.33,91.33,0,0,0-40.12-33,91.14,91.14,0,0,0-86.49,8.4,91.42,91.42,0,0,0-33,40.13,91.05,91.05,0,0,0,8.41,86.48A91.34,91.34,0,0,0,949,561.38a91.06,91.06,0,0,0,102,0,91.49,91.49,0,0,0,33-40.12,91.44,91.44,0,0,0,0-71A91.81,91.81,0,0,0,1075.62,434.77Z" transform="translate(-45.6 -97.98)"/><path d="M952,578.76a5.91,5.91,0,0,0-4.17-2.28,6.17,6.17,0,0,0-2.38.29,6.43,6.43,0,0,0-2.17,1.22,7.68,7.68,0,0,0-2.57,4.69,6.63,6.63,0,0,0,.14,2.49,6,6,0,0,0,1,2.16,5.66,5.66,0,0,0,1.85,1.58,5.53,5.53,0,0,0,2.32.7,6,6,0,0,0,2.38-.28,6.74,6.74,0,0,0,2.17-1.23,7,7,0,0,0,1.71-2.11,7.34,7.34,0,0,0,.86-2.58,6.66,6.66,0,0,0-.14-2.49A6,6,0,0,0,952,578.76Z" transform="translate(-45.6 -97.98)"/><path d="M930.54,563.6l-3-2.75L924,564.69l3,2.75a3,3,0,0,0,2.12.93,2.58,2.58,0,0,0,2.5-2.74A3,3,0,0,0,930.54,563.6Z" transform="translate(-45.6 -97.98)"/><path d="M972.68,594.92l-4.49-1.19-1.42,5.39,4.49,1.18a2.9,2.9,0,0,0,2.26-.26,2.67,2.67,0,0,0,1.32-1.67,2.63,2.63,0,0,0-.33-2.1A2.88,2.88,0,0,0,972.68,594.92Z" transform="translate(-45.6 -97.98)"/><path d="M974.41,586.16l-3.95-1-1.23,4.66,3.95,1.05a2.55,2.55,0,0,0,2-.23,2.28,2.28,0,0,0,1.15-1.44,2.3,2.3,0,0,0-.29-1.83A2.54,2.54,0,0,0,974.41,586.16Z" transform="translate(-45.6 -97.98)"/><path d="M1002.49,591.85a5.89,5.89,0,0,0-1.92-1.43,5.89,5.89,0,0,0-4.75-.08,6,6,0,0,0-2,1.36,6.72,6.72,0,0,0-1.35,2.09,7.22,7.22,0,0,0-.53,2.67,7.32,7.32,0,0,0,.44,2.68,6.66,6.66,0,0,0,1.28,2.14,6,6,0,0,0,1.93,1.42,5.55,5.55,0,0,0,2.36.54,5.66,5.66,0,0,0,2.39-.46,5.85,5.85,0,0,0,2-1.36,6.57,6.57,0,0,0,1.36-2.09,7.2,7.2,0,0,0,.52-2.66,7.38,7.38,0,0,0-.43-2.69A6.53,6.53,0,0,0,1002.49,591.85Z" transform="translate(-45.6 -97.98)"/><path class="cls-1" d="M1075.62,434.77a91.33,91.33,0,0,0-40.12-33,91.14,91.14,0,0,0-86.49,8.4,91.42,91.42,0,0,0-33,40.13,91.05,91.05,0,0,0,8.41,86.48A91.34,91.34,0,0,0,949,561.38a91.06,91.06,0,0,0,102,0,91.49,91.49,0,0,0,33-40.12,91.44,91.44,0,0,0,0-71A91.81,91.81,0,0,0,1075.62,434.77Z" transform="translate(-45.6 -97.98)"/><path d="M1036.4,387.61a5.87,5.87,0,0,0,4.41,1.75,6.24,6.24,0,0,0,2.33-.57,6.49,6.49,0,0,0,2-1.49,7.06,7.06,0,0,0,1.43-2.3,7.14,7.14,0,0,0,.54-2.66,6.64,6.64,0,0,0-.44-2.46,6,6,0,0,0-1.3-2,5.93,5.93,0,0,0-4.42-1.76,6,6,0,0,0-2.32.58,6.46,6.46,0,0,0-2,1.48,7.57,7.57,0,0,0-2,5,6.39,6.39,0,0,0,.44,2.45A6.09,6.09,0,0,0,1036.4,387.61Z" transform="translate(-45.6 -97.98)"/><path d="M1018.83,374.42a2.6,2.6,0,0,0,.51-3.68,3.07,3.07,0,0,0-2.07-1l-4-.56-.71,5.15,4,.56A3,3,0,0,0,1018.83,374.42Z" transform="translate(-45.6 -97.98)"/><path d="M957.69,386.05a6.64,6.64,0,0,0,2,1.54,6,6,0,0,0,2.31.64,5.67,5.67,0,0,0,2.4-.34,5.75,5.75,0,0,0,2.07-1.29,6,6,0,0,0,1.35-2,6.73,6.73,0,0,0,.52-2.44,7.33,7.33,0,0,0-.47-2.68,7.25,7.25,0,0,0-1.36-2.35,6.64,6.64,0,0,0-2-1.53,6,6,0,0,0-2.31-.64,5.88,5.88,0,0,0-4.46,1.62,6.14,6.14,0,0,0-1.36,2,6.53,6.53,0,0,0-.51,2.44,7.64,7.64,0,0,0,1.83,5Z" transform="translate(-45.6 -97.98)"/><path class="cls-1" d="M953.72,389.63a12.24,12.24,0,0,0,3.61,2.7,11.32,11.32,0,0,0,4.3,1.12,11.54,11.54,0,0,0,8.41-3.06,11.38,11.38,0,0,0,2.57-3.63,12.17,12.17,0,0,0,1-4.38,12.47,12.47,0,0,0-3.2-8.78,12.06,12.06,0,0,0-3.61-2.71,11.31,11.31,0,0,0-15.28,5.56,12.28,12.28,0,0,0-1,4.41,12.4,12.4,0,0,0,3.2,8.77Z" transform="translate(-45.6 -97.98)"/><polygon class="cls-1" points="890.65 311.56 883.8 302.08 895.01 308.4 897.72 306.44 895.23 293.81 902.08 303.29 906.45 300.13 892.73 281.18 888.82 284.01 892.34 301.86 876.49 292.93 872.58 295.76 886.29 314.71 890.65 311.56"/><path class="cls-1" d="M916,521.26a91.22,91.22,0,1,0,148.52-100,92.3,92.3,0,0,0-13.5-11.14,91.14,91.14,0,0,0-102,0,91.42,91.42,0,0,0-33,40.13,91.44,91.44,0,0,0,0,71Z" transform="translate(-45.6 -97.98)"/><path class="cls-1" d="M956.09,575.57a11.45,11.45,0,0,0-7.85-4.3,11.58,11.58,0,0,0-4.43.46,12.33,12.33,0,0,0-4,2.14,12.47,12.47,0,0,0-4.48,8.19,12.09,12.09,0,0,0,.36,4.5,11.33,11.33,0,0,0,2,4A11.32,11.32,0,0,0,950,594.36a12.07,12.07,0,0,0,4-2.12,12.48,12.48,0,0,0,4.48-8.19,12.12,12.12,0,0,0-.35-4.51A11.25,11.25,0,0,0,956.09,575.57Z" transform="translate(-45.6 -97.98)"/><path class="cls-1" d="M936.93,565.36a8,8,0,0,0-.83-2.92,9,9,0,0,0-2.05-2.68l-7-6.38-15.76,17.28,4,3.63,5.26-5.76,2.06,1.88-2.1,8.64,4.39,4L927,573a9.09,9.09,0,0,0,2.72.35,8.42,8.42,0,0,0,2.59-.58,7.72,7.72,0,0,0,4.24-4.5A7.18,7.18,0,0,0,936.93,565.36Z" transform="translate(-45.6 -97.98)"/><polygon class="cls-1" points="940.43 289.54 939.13 275.86 949.86 288.64 954.66 288.18 952.44 264.89 947.08 265.4 948.39 279.08 937.66 266.3 932.85 266.76 935.07 290.05 940.43 289.54"/><path class="cls-1" d="M1032.68,391.28a11.16,11.16,0,0,0,3.82,2.5,11.21,11.21,0,0,0,8.83-.19A12.24,12.24,0,0,0,1049,391a12.36,12.36,0,0,0,3.45-8.68,12.12,12.12,0,0,0-.9-4.43,11.35,11.35,0,0,0-10.78-7,11.42,11.42,0,0,0-4.33,1,12.18,12.18,0,0,0-3.69,2.61,11.9,11.9,0,0,0-2.57,4,11.77,11.77,0,0,0-.88,4.68,12.15,12.15,0,0,0,.9,4.42A11.24,11.24,0,0,0,1032.68,391.28Z" transform="translate(-45.6 -97.98)"/><polygon class="cls-1" points="1018.91 312 1021.92 307.76 1012.38 301 1014.74 297.67 1023.22 303.68 1026.23 299.44 1017.74 293.42 1019.89 290.39 1029.13 296.94 1032.14 292.7 1018.5 283.04 1004.98 302.13 1018.91 312"/><path class="cls-1" d="M1011.8,379.45l2.76.38,3.17,8.31,5.88.81-3.93-9.54a9.39,9.39,0,0,0,2.44-1.25,8.57,8.57,0,0,0,1.8-2,7.13,7.13,0,0,0,1.14-3.18,7.22,7.22,0,0,0-.2-2.93,7,7,0,0,0-1.33-2.56,8.14,8.14,0,0,0-2.34-1.94,8.86,8.86,0,0,0-3.21-1l-9.38-1.29-3.2,23.17,5.34.73Z" transform="translate(-45.6 -97.98)"/><rect class="cls-1" x="1037.45" y="577.39" width="5.38" height="23.39" transform="translate(-188.37 318.96) rotate(-21.25)"/><path class="cls-1" d="M1064.86,579.67a5,5,0,0,1-.14,3,5.36,5.36,0,0,1-2.42,2.75,5.85,5.85,0,0,1-2.29.82,6,6,0,0,1-2.39-.15,6.66,6.66,0,0,1-2.23-1.11,7.11,7.11,0,0,1-1.82-2,7.26,7.26,0,0,1-1-2.52,6.37,6.37,0,0,1,0-2.5,6,6,0,0,1,.92-2.21,5.85,5.85,0,0,1,1.75-1.68,5.63,5.63,0,0,1,1.75-.73,5.26,5.26,0,0,1,1.66-.11,4.21,4.21,0,0,1,1.47.4,5.17,5.17,0,0,1,1.24.8l4.54-3.25a11.45,11.45,0,0,0-2.82-2,10.66,10.66,0,0,0-3.34-1,11,11,0,0,0-3.61.1,10.4,10.4,0,0,0-3.62,1.44,11,11,0,0,0-3.33,3.13,11.3,11.3,0,0,0-1.78,4.07,12.23,12.23,0,0,0-.1,4.52,12.43,12.43,0,0,0,4.92,7.94,12.24,12.24,0,0,0,4.08,1.9,11.25,11.25,0,0,0,4.44.22,11.07,11.07,0,0,0,4.29-1.59,10.74,10.74,0,0,0,3-2.66,11.25,11.25,0,0,0,1.74-3.22,10.26,10.26,0,0,0,.56-3.47,11.44,11.44,0,0,0-.54-3.42Z" transform="translate(-45.6 -97.98)"/><path class="cls-1" d="M1087.67,562a6.36,6.36,0,0,0-3-1.85,7,7,0,0,0-3,0,11.59,11.59,0,0,0-2.86,1l-2.55,1.36a12.46,12.46,0,0,1-2.1.91,1.41,1.41,0,0,1-1.52-.32,2.05,2.05,0,0,1-.55-1.63,2.95,2.95,0,0,1,5.16-1.9l3.43-3.92a7.39,7.39,0,0,0-2.49-1.69,7,7,0,0,0-2.82-.53,7.65,7.65,0,0,0-2.92.7,9.62,9.62,0,0,0-2.8,2,10.24,10.24,0,0,0-2.1,2.86,8.4,8.4,0,0,0-.83,2.89,6.24,6.24,0,0,0,.32,2.66,5.74,5.74,0,0,0,1.38,2.21,6,6,0,0,0,3,1.8,6.9,6.9,0,0,0,3,0,11.48,11.48,0,0,0,2.84-1.06c.91-.49,1.77-.94,2.56-1.35a12.74,12.74,0,0,1,2.15-.87,1.51,1.51,0,0,1,1.57.38,2.22,2.22,0,0,1,.62,1.76,3.42,3.42,0,0,1-1.16,2.18c-1.58,1.56-3.12,1.6-4.6.11l-3.43,3.92a8,8,0,0,0,2.57,1.77,6.8,6.8,0,0,0,2.88.54,7.48,7.48,0,0,0,3-.78,10.92,10.92,0,0,0,3-2.14,11.42,11.42,0,0,0,2.24-3,8.53,8.53,0,0,0,.91-3,6.16,6.16,0,0,0-1.79-5Z" transform="translate(-45.6 -97.98)"/><path class="cls-1" d="M1006.36,588.25a11.36,11.36,0,0,0-3.61-2.58,11.21,11.21,0,0,0-4.46-1,10.94,10.94,0,0,0-4.49.84,11.2,11.2,0,0,0-3.7,2.46,12.17,12.17,0,0,0-2.53,3.74,12.18,12.18,0,0,0,2.24,13.15,11.43,11.43,0,0,0,3.62,2.59,11,11,0,0,0,4.46,1,11.14,11.14,0,0,0,4.49-.83,11.46,11.46,0,0,0,3.7-2.46,12.42,12.42,0,0,0,2.53-3.73,12,12,0,0,0,1-4.66,12.15,12.15,0,0,0-.83-4.68A12.39,12.39,0,0,0,1006.36,588.25Z" transform="translate(-45.6 -97.98)"/><path class="cls-1" d="M980.64,585.19a7.1,7.1,0,0,0-1.85-2,8,8,0,0,0-2.7-1.25l-9.7-2.55-6,22.62,10.23,2.69a8.14,8.14,0,0,0,3.11.25,8.23,8.23,0,0,0,2.71-.82,6.59,6.59,0,0,0,2.08-1.7,6.46,6.46,0,0,0,1.21-2.43,5.31,5.31,0,0,0,.11-2.66,7.18,7.18,0,0,0-.8-2,7,7,0,0,0-1.48-1.69,6.29,6.29,0,0,0,1.6-.66,5.29,5.29,0,0,0,1.28-1.08,4.31,4.31,0,0,0,.95-1.86,5.85,5.85,0,0,0,.12-2.56A6.59,6.59,0,0,0,980.64,585.19Z" transform="translate(-45.6 -97.98)"/><polygon class="cls-1" points="984.07 482.85 965.72 486.71 966.79 491.8 973.33 490.42 977.07 508.23 982.34 507.12 978.6 489.31 985.14 487.94 984.07 482.85"/><path d="M1000,355.07a130.7,130.7,0,1,0,130.7,130.69A130.7,130.7,0,0,0,1000,355.07Zm77.73,35.61-3,4.24-9.24-6.54-2.15,3,8.48,6-3,4.24-8.49-6L1058,399l9.54,6.76-3,4.24-13.94-9.87L1064.1,381Zm-47.54-12.19a11.9,11.9,0,0,1,2.57-4,12.18,12.18,0,0,1,3.69-2.61,11.42,11.42,0,0,1,4.33-1,11.28,11.28,0,0,1,10.78,7,12.12,12.12,0,0,1,.9,4.43A12.36,12.36,0,0,1,1049,391a12.24,12.24,0,0,1-3.68,2.59,11.21,11.21,0,0,1-8.83.19,11.29,11.29,0,0,1-6.29-6.19,12.15,12.15,0,0,1-.9-4.42A11.77,11.77,0,0,1,1030.19,378.49Zm-21.59-15.22,9.38,1.29a8.86,8.86,0,0,1,3.21,1,8.14,8.14,0,0,1,2.34,1.94,7,7,0,0,1,1.33,2.56,7.22,7.22,0,0,1,.2,2.93,7.13,7.13,0,0,1-1.14,3.18,8.57,8.57,0,0,1-1.8,2,9.39,9.39,0,0,1-2.44,1.25l3.93,9.54-5.88-.81-3.17-8.31-2.76-.38-1.06,7.72-5.34-.73Zm-25.35,1L994,377.06l-1.3-13.67,5.36-.51,2.22,23.28-4.81.46-10.73-12.78L986,387.52l-5.36.51-2.22-23.29Zm-32.73,16.57a12.28,12.28,0,0,1,1-4.41,11.32,11.32,0,0,1,15.28-5.56,12.06,12.06,0,0,1,3.61,2.71,12.47,12.47,0,0,1,3.2,8.78,12.17,12.17,0,0,1-1,4.38,11.38,11.38,0,0,1-2.57,3.63,11.54,11.54,0,0,1-8.41,3.06,11.32,11.32,0,0,1-4.3-1.12,12.24,12.24,0,0,1-3.61-2.7,12.4,12.4,0,0,1-3.2-8.77Zm-28.44,10.05,15.86,8.93L934.42,382l3.91-2.83L952,398.11l-4.36,3.16-6.86-9.48,2.5,12.63-2.71,2-11.22-6.32,6.86,9.48-4.36,3.16-13.72-19Zm2.3,43.86a91.33,91.33,0,0,1,40.12-33,91.14,91.14,0,0,1,86.49,8.4,91.42,91.42,0,0,1,33,40.13,91.05,91.05,0,0,1-8.41,86.48A91.34,91.34,0,0,1,1051,561.38a91.06,91.06,0,0,1-102,0,91.49,91.49,0,0,1-33-40.12,91.44,91.44,0,0,1,0-71A91.81,91.81,0,0,1,924.38,434.77ZM908.14,548.28a93.17,93.17,0,0,1-15.32-29.36,111.54,111.54,0,0,1,0-66.62,93.07,93.07,0,0,1,15.32-29.36l2.19,1.72C884,458.27,884,513,910.33,546.56Zm24.2,24.45a8.42,8.42,0,0,1-2.59.58A9.09,9.09,0,0,1,927,573l-2.16,10.09-4.39-4,2.1-8.64-2.06-1.88-5.26,5.76-4-3.63,15.76-17.28,7,6.38a9,9,0,0,1,2.05,2.68,8,8,0,0,1,.83,2.92,7.18,7.18,0,0,1-.35,2.87,7.72,7.72,0,0,1-4.24,4.5Zm26.09,11.32a12.48,12.48,0,0,1-4.48,8.19,12.07,12.07,0,0,1-4,2.12,11.4,11.4,0,0,1-12.27-3.83,11.33,11.33,0,0,1-2-4,12.09,12.09,0,0,1-.36-4.5,12.47,12.47,0,0,1,4.48-8.19,12.33,12.33,0,0,1,4-2.14,11.58,11.58,0,0,1,4.43-.46,11.3,11.3,0,0,1,9.84,8.27A12.12,12.12,0,0,1,958.43,584.05Zm23,6.07a4.31,4.31,0,0,1-.95,1.86,5.29,5.29,0,0,1-1.28,1.08,6.29,6.29,0,0,1-1.6.66,7,7,0,0,1,1.48,1.69,7.18,7.18,0,0,1,.8,2,5.31,5.31,0,0,1-.11,2.66,6.46,6.46,0,0,1-1.21,2.43,6.59,6.59,0,0,1-2.08,1.7,8.23,8.23,0,0,1-2.71.82,8.14,8.14,0,0,1-3.11-.25l-10.23-2.69,6-22.62,9.7,2.55a8,8,0,0,1,2.7,1.25,7.1,7.1,0,0,1,1.85,2,6.59,6.59,0,0,1,.91,2.37A5.85,5.85,0,0,1,981.43,590.12Zm27.18,11.3a12.42,12.42,0,0,1-2.53,3.73,11.46,11.46,0,0,1-3.7,2.46,11.14,11.14,0,0,1-4.49.83,11,11,0,0,1-4.46-1,11.43,11.43,0,0,1-3.62-2.59,12.08,12.08,0,0,1-2.4-3.81,12.44,12.44,0,0,1,.16-9.34A12.17,12.17,0,0,1,990.1,588a11.2,11.2,0,0,1,3.7-2.46,10.94,10.94,0,0,1,4.49-.84,11.21,11.21,0,0,1,4.46,1,11.36,11.36,0,0,1,3.61,2.58,12.39,12.39,0,0,1,2.41,3.83,12.15,12.15,0,0,1,.83,4.68A12,12,0,0,1,1008.61,601.42Zm19.33,3.68-5.27,1.11-3.74-17.81-6.54,1.38-1.07-5.09,18.35-3.85,1.07,5.08-6.54,1.38Zm13.93-4.14-8.48-21.8,5-1.95,8.48,21.8Zm27.9-17a11.25,11.25,0,0,1-1.74,3.22,10.74,10.74,0,0,1-3,2.66,11.07,11.07,0,0,1-4.29,1.59,11.25,11.25,0,0,1-4.44-.22,12.24,12.24,0,0,1-4.08-1.9,12.43,12.43,0,0,1-4.92-7.94,12.23,12.23,0,0,1,.1-4.52,11.3,11.3,0,0,1,1.78-4.07,11,11,0,0,1,3.33-3.13,10.4,10.4,0,0,1,3.62-1.44,11,11,0,0,1,3.61-.1,10.66,10.66,0,0,1,3.34,1,11.45,11.45,0,0,1,2.82,2l-4.54,3.25a5.17,5.17,0,0,0-1.24-.8,4.21,4.21,0,0,0-1.47-.4,5.26,5.26,0,0,0-1.66.11,5.63,5.63,0,0,0-1.75.73,5.85,5.85,0,0,0-1.75,1.68,6,6,0,0,0-.92,2.21,6.37,6.37,0,0,0,0,2.5,7.26,7.26,0,0,0,1,2.52,7.11,7.11,0,0,0,1.82,2,6.66,6.66,0,0,0,2.23,1.11,6,6,0,0,0,2.39.15,5.85,5.85,0,0,0,2.29-.82,5.36,5.36,0,0,0,2.42-2.75,5,5,0,0,0,.14-3l4.93-2.62a11.44,11.44,0,0,1,.54,3.42A10.26,10.26,0,0,1,1069.77,583.94Zm19.69-17a8.53,8.53,0,0,1-.91,3,11.42,11.42,0,0,1-2.24,3,10.92,10.92,0,0,1-3,2.14,7.48,7.48,0,0,1-3,.78,6.8,6.8,0,0,1-2.88-.54,8,8,0,0,1-2.57-1.77l3.43-3.92c1.48,1.49,3,1.45,4.6-.11a3.42,3.42,0,0,0,1.16-2.18,2.22,2.22,0,0,0-.62-1.76,1.51,1.51,0,0,0-1.57-.38,12.74,12.74,0,0,0-2.15.87c-.79.41-1.65.86-2.56,1.35a11.48,11.48,0,0,1-2.84,1.06,6.9,6.9,0,0,1-3,0,6,6,0,0,1-3-1.8,5.74,5.74,0,0,1-1.38-2.21,6.24,6.24,0,0,1-.32-2.66,8.4,8.4,0,0,1,.83-2.89,10.24,10.24,0,0,1,2.1-2.86,9.62,9.62,0,0,1,2.8-2,7.65,7.65,0,0,1,2.92-.7,7,7,0,0,1,2.82.53,7.39,7.39,0,0,1,2.49,1.69l-3.43,3.92a3.07,3.07,0,0,0-5.16,1.9,2.05,2.05,0,0,0,.55,1.63,1.41,1.41,0,0,0,1.52.32,12.46,12.46,0,0,0,2.1-.91l2.55-1.36a11.59,11.59,0,0,1,2.86-1,7,7,0,0,1,3,0,6.36,6.36,0,0,1,3,1.85,6.16,6.16,0,0,1,1.79,5Zm3.12-18.54-2.19-1.72c26.38-33.6,26.38-88.29,0-121.9l2.19-1.71a92.84,92.84,0,0,1,15.31,29.36,111.3,111.3,0,0,1,0,66.61A92.84,92.84,0,0,1,1092.58,548.43Z" transform="translate(-45.6 -97.98)"/><path class="cls-1" d="M998.89,523.37l1.21,0a37.36,37.36,0,0,0,20.79-6.3V454.24a37.69,37.69,0,0,0-20.54-6.29H1000a37.31,37.31,0,0,0-20.71,6.27v62.87A37.31,37.31,0,0,0,998.89,523.37Z" transform="translate(-45.6 -97.98)"/><path class="cls-1" d="M1067.26,479.16a2.46,2.46,0,0,0,1.43-1.48v-.57c-.22-.95-.44-1.9-.65-2.85-.7-3.21-1.39-6.42-2.09-9.63a1.8,1.8,0,0,0-1.72-1.46l-7.68-.49v21.83C1060.12,482.72,1063.68,480.93,1067.26,479.16Z" transform="translate(-45.6 -97.98)"/><path class="cls-1" d="M1000,445.48h.33a40.05,40.05,0,0,1,20.52,5.79V419.81l-10.62-2.54a3,3,0,0,1-.32-.12h-.65a2.6,2.6,0,0,0-1.5,1.46c-2,3.69-3.95,7.37-5.93,11.05a4.25,4.25,0,0,1-.35.58,1.58,1.58,0,0,1-1.38.73c-1.32,0-2.64.08-4,.15H996a2.34,2.34,0,0,1-2-1.06q-3.74-5.4-7.49-10.78a1.83,1.83,0,0,0-1.54-1,2.94,2.94,0,0,0-.89.17l-4.72,1.59v31.18A40,40,0,0,1,1000,445.48Z" transform="translate(-45.6 -97.98)"/><path class="cls-1" d="M1000.1,525.86c-.42,0-.85,0-1.28,0a39.87,39.87,0,0,1-19.49-5.75V542q1.7-1.71,3.38-3.44a2.61,2.61,0,0,1,1.94-.89,3,3,0,0,1,.77.1c2.05.49,4.12.93,6.17,1.38a2.32,2.32,0,0,1,1.84,1.65q2,6.11,4.06,12.2a1.84,1.84,0,0,0,1.92,1.39h.45a78.82,78.82,0,0,0,8.26-.55c.89-.09,1.77-.2,2.66-.3a1.81,1.81,0,0,0,1.65-1.5l1.59-7.58,1.14-5.42a2.16,2.16,0,0,1,1.36-1.64c1.45-.58,2.9-1.14,4.37-1.68V520.06A40,40,0,0,1,1000.1,525.86Z" transform="translate(-45.6 -97.98)"/><path class="cls-1" d="M934.12,470.82a1.81,1.81,0,0,0-1.52,1.59c-.35,2.86-.73,5.72-1,8.58-.15,1.34-.15,2.69-.25,4a.51.51,0,0,0,.4.59l5.43,2,6.31,2.3V469.14Z" transform="translate(-45.6 -97.98)"/><path class="cls-1" d="M1060.63,515.88l.31,0a1.67,1.67,0,0,0,1.7-1.27q2.07-5.65,4.13-11.3a1.78,1.78,0,0,0-.68-2.26l-9.54-7v21.41Z" transform="translate(-45.6 -97.98)"/><path class="cls-1" d="M941.18,505.72l-4.19,3.9a1.73,1.73,0,0,0-.38,2.15q2.61,5.09,5.24,10.16a1.66,1.66,0,0,0,1.52.94h.08V503.6Z" transform="translate(-45.6 -97.98)"/><path class="cls-1" d="M943.12,447a1.73,1.73,0,0,0,0,2.4l.38.5v-3.31Z" transform="translate(-45.6 -97.98)"/><path d="M952,434.47a4.62,4.62,0,0,1,1.82.39l2.87,1.18,9.25,3.84.12,0,.07,0,3-2.11.53-.37c-.28-3.55-.64-8.21-1-12.88a4.17,4.17,0,0,1,3-4.49l7.64-2.58V403.14a84.87,84.87,0,0,0-35.88,19v20.51l5.2-6.44A4.23,4.23,0,0,1,952,434.47Z" transform="translate(-45.6 -97.98)"/><path d="M975.48,549.42a4.21,4.21,0,0,1-3.05,1.34,4.5,4.5,0,0,1-2.2-.6l-9.68-5.47a4.21,4.21,0,0,1-2.11-4.92l.56-2.22c.86-3.38,1.76-6.89,2.64-10.33v0l0,0L957,522.39l-3.92.88-1.68.38-2.12.47-4.9,1.11a4.58,4.58,0,0,1-1,.11v24.09a85.1,85.1,0,0,0,35.88,19V545.52l-1.84,1.87Z" transform="translate(-45.6 -97.98)"/><path d="M946.77,466l.05-.1.12-.3c.61-1.47,1.23-3,1.88-4.48l0-.07s0-.05-.06-.08c-1.79-2.34-3.59-4.71-5.34-7v12.65l3.22-.58Z" transform="translate(-45.6 -97.98)"/><path d="M962.38,485.23a37.82,37.82,0,0,0,17,31.86V454.22A37.85,37.85,0,0,0,962.38,485.23Z" transform="translate(-45.6 -97.98)"/><path d="M944.09,494l-.24-1.3-.4-.14v7.66l1.51-1.41C944.68,497.21,944.38,495.58,944.09,494Z" transform="translate(-45.6 -97.98)"/><path d="M1026.39,422l0,.63c.15,4,.3,8.21.43,12.32a1.23,1.23,0,0,0,0,.2l.08,0c1,.54,2,1.1,2.78,1.58l0,0,.06,0,8.32-4.63,3-1.68a4.74,4.74,0,0,1,2.3-.64,4.33,4.33,0,0,1,3.14,1.44l1.83,1.87,7,7.13a4.63,4.63,0,0,1,1,1.63l.07.19V422.1a85,85,0,0,0-35.66-18.9v14.06l2,.49A4.25,4.25,0,0,1,1026.39,422Z" transform="translate(-45.6 -97.98)"/><path d="M1051.72,452.82q-1.14,1.95-2.3,3.89c.5,1,1.06,2,1.7,3.14l5.43.35V444.43a5.48,5.48,0,0,1-.49,1.1Z" transform="translate(-45.6 -97.98)"/><path d="M1037.8,485.86a37.68,37.68,0,0,0-16.91-31.62v62.85A37.79,37.79,0,0,0,1037.8,485.86Z" transform="translate(-45.6 -97.98)"/><path d="M1047.6,517l-.07.1-3,4v0a.76.76,0,0,0,0,.11c1.24,3.25,2.5,6.55,3.71,9.74l.94,2.46a4.24,4.24,0,0,1-1.49,5.21l-9.26,7a4.31,4.31,0,0,1-2.6.91,4.25,4.25,0,0,1-2.67-1l-1.54-1.24-.67-.54-2.11-1.7-5.72-4.61-2.31.85v30a85,85,0,0,0,35.66-18.9v-31.5l-4-.43Z" transform="translate(-45.6 -97.98)"/><path class="cls-2" d="M1056.55,442v2.39A4.1,4.1,0,0,0,1056.55,442Z" transform="translate(-45.6 -97.98)"/><path d="M1016.52,537.39a2.16,2.16,0,0,0-1.36,1.64l-1.14,5.42-1.59,7.58a1.81,1.81,0,0,1-1.65,1.5c-.89.1-1.77.21-2.66.3a78.82,78.82,0,0,1-8.26.55h-.45a1.84,1.84,0,0,1-1.92-1.39q-2-6.09-4.06-12.2a2.32,2.32,0,0,0-1.84-1.65c-2.05-.45-4.12-.89-6.17-1.38a3,3,0,0,0-.77-.1,2.61,2.61,0,0,0-1.94.89q-1.68,1.73-3.38,3.44v3.53c1.71-1.73,3.45-3.49,5.15-5.24a.82.82,0,0,1,.17-.14h0a.7.7,0,0,1,.2,0c1.77.42,3.56.81,5.3,1.19l.92.2h0l3.36,10.11.7,2.09a4.3,4.3,0,0,0,4.25,3.08h.47a81.05,81.05,0,0,0,8.52-.57l1.8-.2.88-.1a4.26,4.26,0,0,0,3.79-3.45c.32-1.51.64-3,.95-4.53.22-1,.43-2,.64-3l.18-.86c.31-1.47.63-3,1-4.47,1.15-.45,2.25-.88,3.32-1.28v-2.64C1019.42,536.25,1018,536.81,1016.52,537.39Z" transform="translate(-45.6 -97.98)"/><path d="M1000,445.48a40,40,0,0,0-20.71,5.76v3A37.31,37.31,0,0,1,1000,448h.31a37.69,37.69,0,0,1,20.54,6.29v-3a40.05,40.05,0,0,0-20.52-5.79Z" transform="translate(-45.6 -97.98)"/><path d="M1000.1,523.39l-1.21,0a37.31,37.31,0,0,1-19.56-6.28v3a39.87,39.87,0,0,0,19.49,5.75c.43,0,.86,0,1.28,0a40,40,0,0,0,20.79-5.8v-3A37.36,37.36,0,0,1,1000.1,523.39Z" transform="translate(-45.6 -97.98)"/><path d="M1071.1,476.56c-.06-.3-.13-.6-.2-.9-.15-.64-.3-1.29-.44-1.93l-1.14-5.25c-.32-1.46-.63-2.92-1-4.38a4.25,4.25,0,0,0-4-3.4l-1.86-.12-6-.38v2.48l7.68.49a1.8,1.8,0,0,1,1.72,1.46c.7,3.21,1.39,6.42,2.09,9.63.21.95.43,1.9.65,2.85v.57a2.46,2.46,0,0,1-1.43,1.48c-3.58,1.77-7.14,3.56-10.71,5.35V494l9.54,7a1.78,1.78,0,0,1,.68,2.26q-2.07,5.64-4.13,11.3a1.67,1.67,0,0,1-1.7,1.27l-.31,0-4.08-.44v2.49l3.81.41.58,0a4.14,4.14,0,0,0,4-2.89q2.05-5.66,4.13-11.3a4.27,4.27,0,0,0-1.54-5.1l-2.17-1.61c-2.75-2-5.59-4.13-8.4-6.19l-.12-.1s0-.08,0-.19c.12-1.45.2-2.89.25-4v0h0l3.85-1.93c2.41-1.21,4.9-2.46,7.35-3.67a4.93,4.93,0,0,0,2.71-3l.11-.35v-1.22Z" transform="translate(-45.6 -97.98)"/><path d="M984.05,418.47a2.94,2.94,0,0,1,.89-.17,1.83,1.83,0,0,1,1.54,1q3.75,5.39,7.49,10.78a2.34,2.34,0,0,0,2,1.06h.16c1.33-.07,2.65-.15,4-.15a1.58,1.58,0,0,0,1.38-.73,4.25,4.25,0,0,0,.35-.58c2-3.68,4-7.36,5.93-11.05a2.6,2.6,0,0,1,1.5-1.46h.65a3,3,0,0,0,.32.12l10.62,2.54v-2.55L1011,414.9l-.13-.06-.44-.17h-1.49l-.36.11a5.15,5.15,0,0,0-2.95,2.67c-1.55,2.93-3.15,5.9-4.69,8.77l-1.23,2.27h0c-1.05,0-2.08.07-3.08.12l-.56,0h0l-3.72-5.36-3.76-5.42a4.24,4.24,0,0,0-3.58-2.05,5.28,5.28,0,0,0-1.68.3l-3.93,1.33v2.61Z" transform="translate(-45.6 -97.98)"/><path d="M943.37,522.87a1.66,1.66,0,0,1-1.52-.94q-2.62-5.07-5.24-10.16a1.73,1.73,0,0,1,.38-2.15l4.19-3.9,2.27-2.12v-3.38l-2.28,2.12-1.68,1.57-1,.94-3.18,3a4.2,4.2,0,0,0-.89,5.09c1.76,3.43,3.53,6.85,5.24,10.17a4.14,4.14,0,0,0,3.72,2.27h.08v-2.48Z" transform="translate(-45.6 -97.98)"/><path d="M937.14,487.62l-5.43-2a.51.51,0,0,1-.4-.59c.1-1.35.1-2.7.25-4,.31-2.86.69-5.72,1-8.58a1.81,1.81,0,0,1,1.52-1.59l9.33-1.68v-2.52l-6.24,1.13-3.53.64a4.24,4.24,0,0,0-3.53,3.71c-.09.67-.17,1.34-.26,2-.27,2.17-.55,4.4-.8,6.61-.09.89-.13,1.75-.17,2.59,0,.53,0,1-.08,1.54a3,3,0,0,0,2,3.09l3,1.12,2.41.88,3.47,1.27,3.69,1.35v-2.64Z" transform="translate(-45.6 -97.98)"/><path d="M943.07,449.37a1.73,1.73,0,0,1,0-2.4l.33-.41v-3.95l-2.26,2.81a4.16,4.16,0,0,0-.09,5.45l1.95,2.56.4.54v-4.1Z" transform="translate(-45.6 -97.98)"/><path d="M946.7,500.57a2.23,2.23,0,0,0,.72-2.1c-.37-2.1-.76-4.19-1.15-6.29a2.21,2.21,0,0,0-1.48-1.77l-1.34-.49v2.64l.4.14.24,1.3c.29,1.58.59,3.21.87,4.81l-1.51,1.41v3.38Z" transform="translate(-45.6 -97.98)"/><path d="M947.1,468.48a2.49,2.49,0,0,0,2-1.62c.65-1.58,1.3-3.17,2-4.74a2.43,2.43,0,0,0-.33-2.64q-3.68-4.78-7.31-9.61V454c1.75,2.31,3.55,4.68,5.34,7,0,0,0,.06.06.08l0,.07c-.65,1.49-1.27,3-1.88,4.48l-.12.3-.05.1-.1,0-3.22.58v2.52Z" transform="translate(-45.6 -97.98)"/><path d="M950.57,437.73A1.83,1.83,0,0,1,952,437a2.25,2.25,0,0,1,.87.19c4,1.68,8.08,3.34,12.12,5a3,3,0,0,0,1.09.23,2.51,2.51,0,0,0,1.48-.5l3.55-2.47a2.25,2.25,0,0,0,1.06-2.19q-.51-6.47-1-12.91a1.74,1.74,0,0,1,1.31-2l6.84-2.31v-2.61L971.69,420a4.17,4.17,0,0,0-3,4.49c.36,4.67.72,9.33,1,12.88l-.53.37-3,2.11-.07,0-.12,0L956.71,436l-2.87-1.18a4.62,4.62,0,0,0-1.82-.39,4.23,4.23,0,0,0-3.37,1.7l-5.2,6.44v3.95Z" transform="translate(-45.6 -97.98)"/><path d="M962.38,485.23a37.85,37.85,0,0,1,17-31v-3a40.22,40.22,0,0,0,0,68.85v-3A37.82,37.82,0,0,1,962.38,485.23Z" transform="translate(-45.6 -97.98)"/><path d="M973.72,547.68a1.82,1.82,0,0,1-1.29.61,2,2,0,0,1-1-.29l-9.68-5.46a1.75,1.75,0,0,1-.93-2.16q1.59-6.27,3.2-12.55a2.38,2.38,0,0,0-.63-2.39l-4.59-4.77a2.28,2.28,0,0,0-1.69-.77,2.68,2.68,0,0,0-.62.07c-1.87.43-3.74.84-5.62,1.26l-7,1.58a2.18,2.18,0,0,1-.43.05v2.48a4.58,4.58,0,0,0,1-.11l4.9-1.11,2.12-.47,1.68-.38,3.92-.88,4.59,4.77,0,0v0c-.88,3.44-1.78,6.95-2.64,10.33l-.56,2.22a4.21,4.21,0,0,0,2.11,4.92l9.68,5.47a4.5,4.5,0,0,0,2.2.6,4.21,4.21,0,0,0,3.05-1.34l2-2,1.84-1.87V542Z" transform="translate(-45.6 -97.98)"/><path d="M1054.66,486.89c-.06,1.29-.14,2.59-.25,3.89a2.59,2.59,0,0,0,1.12,2.5l1,.75v-9.52l-.51.25A2.34,2.34,0,0,0,1054.66,486.89Z" transform="translate(-45.6 -97.98)"/><path d="M1037.8,485.86a37.79,37.79,0,0,1-16.91,31.23v3a40.21,40.21,0,0,0,0-68.79v3A37.68,37.68,0,0,1,1037.8,485.86Z" transform="translate(-45.6 -97.98)"/><path d="M1047.78,514.51a1.46,1.46,0,0,0-.29,0,2.22,2.22,0,0,0-1.85,1c-1,1.39-2.05,2.78-3.06,4.18a3,3,0,0,0-.36.69,2.44,2.44,0,0,0,.08,1.78q2.33,6.09,4.64,12.19a1.82,1.82,0,0,1-.66,2.36l-9.26,7a1.84,1.84,0,0,1-1.11.41,1.77,1.77,0,0,1-1.12-.43l-2.2-1.77-7.86-6.34a2.32,2.32,0,0,0-1.47-.58,2.19,2.19,0,0,0-.7.12l-1.67.62v2.64l2.31-.85,5.72,4.61,2.11,1.7.67.54,1.54,1.24a4.25,4.25,0,0,0,2.67,1,4.31,4.31,0,0,0,2.6-.91l9.26-7a4.24,4.24,0,0,0,1.49-5.21l-.94-2.46c-1.21-3.19-2.47-6.49-3.71-9.74a.76.76,0,0,1,0-.11v0l3-4,.07-.1,4.91.52,4,.43v-2.49Z" transform="translate(-45.6 -97.98)"/><path d="M1022.36,420.16a1.79,1.79,0,0,1,1.56,1.88q.24,6.46.46,12.94a2.53,2.53,0,0,0,1.4,2.35c.91.49,1.81,1,2.71,1.53a2.51,2.51,0,0,0,1.3.39,2.58,2.58,0,0,0,1.27-.36c3.78-2.11,7.56-4.2,11.34-6.3a2.21,2.21,0,0,1,1.1-.34,1.93,1.93,0,0,1,1.37.7l8.81,9a1.94,1.94,0,0,1,.47.74,1.76,1.76,0,0,1-.22,1.57l-6.68,11.26a2.13,2.13,0,0,0-.12,2.15c.6,1.2,1.25,2.38,1.92,3.55a2.17,2.17,0,0,0,1.8,1.09l5.7.37V460.2l-5.43-.35c-.64-1.11-1.2-2.14-1.7-3.14q1.15-1.93,2.3-3.89l4.34-7.29a5.48,5.48,0,0,0,.49-1.1V442l-.07-.19a4.63,4.63,0,0,0-1-1.63l-7-7.13-1.83-1.87a4.33,4.33,0,0,0-3.14-1.44,4.74,4.74,0,0,0-2.3.64l-3,1.68-8.32,4.63-.06,0,0,0c-.82-.48-1.78-1-2.78-1.58l-.08,0a1.23,1.23,0,0,1,0-.2c-.13-4.11-.28-8.28-.43-12.32l0-.63a4.25,4.25,0,0,0-3.46-4.2l-2-.49v2.55Z" transform="translate(-45.6 -97.98)"/><path class="cls-3" d="M958.85,557.37" transform="translate(-45.6 -97.98)"/><path d="M881.2,1387.87v101.62H779.58V1387.87Zm-79,33.87h45.16V1433H802.17v33.87h56.45v-11.29H813.46v-11.29h45.16v-33.87H802.17Z" transform="translate(-45.6 -97.98)"/><path d="M994.11,1387.87v101.62H892.49V1387.87Zm-22.58,79v-56.45H915.08v56.45Zm-45.16-11.29v-33.87h33.87v33.87Z" transform="translate(-45.6 -97.98)"/><path d="M1107,1387.87v101.62H1005.4V1387.87Zm-79,33.87h45.16V1433H1028v33.87h56.45v-11.29h-45.16v-11.29h45.16v-33.87H1028Z" transform="translate(-45.6 -97.98)"/><path d="M1219.93,1387.87v101.62H1118.31V1387.87Zm-56.45,22.58v56.45h11.29v-56.45Z" transform="translate(-45.6 -97.98)"/></svg>