<svg id="Layer_1" data-name="Layer 1" xmlns="http://www.w3.org/2000/svg" viewBox="0 0 1812.55 1713.06"><defs><style>.cls-1,.cls-4{fill:#fff;}.cls-2{fill:none;}.cls-3{fill:#7f7353;}.cls-4{font-size:171.54px;font-family:Inversionz;}</style></defs><polygon class="cls-1" points="177.69 631.6 177.69 435.88 906.28 15.24 1634.86 435.88 1634.86 631.6 1648.05 631.6 1648.05 428.26 906.28 0 164.5 428.26 164.5 631.6 177.69 631.6"/><polygon class="cls-1" points="1634.86 1073.55 1634.86 1277.18 906.28 1697.83 177.69 1277.18 177.69 1073.55 164.5 1073.55 164.5 1284.8 906.28 1713.06 1648.05 1284.8 1648.05 1073.55 1634.86 1073.55"/><polygon class="cls-1" points="845.59 768.59 798.07 741.16 750.56 768.59 750.56 823.45 798.07 850.88 845.59 823.45 845.59 768.59"/><polygon class="cls-1" points="893.1 686.32 845.59 658.88 798.07 686.32 798.07 741.18 845.59 768.61 893.1 741.18 893.1 686.32"/><polygon class="cls-1" points="988.32 686.32 940.81 658.88 893.3 686.32 893.3 741.18 940.81 768.61 988.32 741.18 988.32 686.32"/><polygon class="cls-1" points="1035.6 768.59 988.09 741.16 940.58 768.59 940.58 823.45 988.09 850.88 1035.6 823.45 1035.6 768.59"/><polygon class="cls-1" points="988.1 850.87 940.58 823.44 893.07 850.87 893.07 905.73 940.58 933.16 988.1 905.73 988.1 850.87"/><polygon class="cls-1" points="893.1 850.87 845.59 823.44 798.07 850.87 798.07 905.73 845.59 933.16 893.1 905.73 893.1 850.87"/><path class="cls-1" d="M221,1041.46l-5.61,1.23-5.26,1.17-5,1.1-4.72,1.06-4.55,1-4.42,1-4.37,1-4.36,1-4.42,1-4.54,1-4.72,1.1-4.95,1.16-5.24,1.24-5.6,1.34v115.65l4.84-1.16,4.2-1,4-.94,4.2-1,4.85-1.13v36.79l-5.62,1.3-5.31,1.25-5.05,1.19-4.83,1.15-4.65,1.12-4.51,1.08-4.4,1.07-4.35,1.05-4.33,1.06-4.34,1.07-4.4,1.09c-1.49.36-3,.74-4.51,1.12l-4.64,1.15-4.81,1.22-5,1.27-5.3,1.34-5.59,1.44v-36.79l5.09-1.3,4.37-1.11,4.38-1.11,5.09-1.28V926.86l-5.09,1.28-4.38,1.11-4.37,1.12-5.09,1.3V894.89l5.59-1.44,5.3-1.34,5-1.27,4.81-1.21,4.64-1.16c1.53-.38,3-.76,4.51-1.12l4.4-1.09,4.34-1.07,4.33-1.06,4.35-1,4.4-1.07,4.51-1.08,4.65-1.12,4.83-1.14,5.05-1.2,5.31-1.24,5.62-1.31V911.7l-4.85,1.13-4.2,1-4,.94-4.2,1-4.84,1.15v102.92l5.6-1.33,5.24-1.24,4.95-1.16,4.72-1.11,4.54-1.05,4.42-1,4.36-1,4.37-1,4.42-1,4.55-1,4.72-1,5-1.11,5.26-1.16,5.61-1.24V901.41l-4.85,1.06-4.22.93-4,.89-4.21.94-4.86,1.09V869.54l5.63-1.26,5.32-1.19L214.9,866l4.85-1.06,4.66-1,4.53-1,4.42-.95,4.37-.94,4.35-.93,4.37-.92,4.43-.94,4.53-.94,4.67-1,4.85-1,5.08-1,5.34-1.09L281,852v36.78l-5.13,1-4.41.9-4.42.9-5.12,1.06v255.7l5.12-1.06,4.42-.9,4.41-.9,5.13-1v36.78l-5.64,1.14-5.34,1.09-5.08,1-4.85,1-4.67,1-4.53,1-4.43.94-4.37.92-4.35.93-4.37.94-4.42,1-4.53,1-4.66,1-4.85,1.07-5.06,1.12-5.32,1.19-5.63,1.26V1162l4.86-1.09L208,1160l4-.89,4.22-.93,4.85-1.07V1041.46Z" transform="translate(-93.72 -143.47)"/><path class="cls-1" d="M298,1141.14l5-1,4.34-.84,4.33-.84,5.05-1c.36-2,.72-3.91,1.08-5.84s.71-3.84,1.06-5.73.69-3.77,1-5.63.68-3.7,1-5.53.67-3.64,1-5.44.66-3.58,1-5.35.65-3.52,1-5.27.64-3.46,1-5.18.63-3.42.94-5.11.63-3.36.93-5,.62-3.32.92-5,.61-3.27.91-4.9l.9-4.83c.29-1.61.59-3.2.88-4.79s.59-3.16.88-4.73.58-3.13.86-4.68.58-3.1.86-4.64.57-3.07.85-4.59.57-3,.85-4.56l.84-4.53c.27-1.5.55-3,.83-4.5s.55-3,.83-4.47.55-3,.82-4.45.55-3,.82-4.44.55-3,.82-4.43.55-2.94.82-4.41.55-3,.82-4.42.54-2.94.82-4.41.54-2.94.82-4.42.54-2.94.82-4.42.54-3,.82-4.44.55-3,.82-4.45.55-3,.83-4.47.56-3,.84-4.5.55-3,.83-4.52.57-3,.85-4.56.56-3,.85-4.59.57-3.08.86-4.63l.87-4.68.87-4.72.89-4.78.9-4.83.9-4.9c.31-1.64.61-3.29.92-5s.62-3.33.93-5,.63-3.39.95-5.1.64-3.44,1-5.17.65-3.49,1-5.26.65-3.54,1-5.34.67-3.6,1-5.43.69-3.66,1-5.52.69-3.73,1-5.61.71-3.8,1.06-5.72.72-3.86,1.08-5.82l-4.48.79-3.91.7-4.48.81V838.31l5.44-1,5.15-.92,4.9-.87,4.69-.82,4.52-.78,4.38-.76,4.29-.74,4.22-.72,4.21-.71,4.23-.71,4.29-.71,4.38-.73,4.53-.74,4.69-.76,4.91-.8,5.17-.82,5.46-.87v36.79l-4.38.69-3.81.61-4.37.7c.38,1.94.76,3.87,1.13,5.77s.75,3.8,1.12,5.67.73,3.72,1.1,5.56.72,3.66,1.07,5.46.71,3.59,1.06,5.36.69,3.53,1,5.28.68,3.47,1,5.18l1,5.1c.34,1.69.67,3.36,1,5s.66,3.31,1,4.95.64,3.26,1,4.88.64,3.22.95,4.81.63,3.18.94,4.76.62,3.14.92,4.7.62,3.11.92,4.65.6,3.07.91,4.6.6,3.05.89,4.56l.89,4.52.89,4.49c.29,1.49.58,3,.88,4.46l.87,4.43.87,4.42.87,4.4c.28,1.46.57,2.92.86,4.39s.58,2.92.86,4.38l.87,4.38c.28,1.46.57,2.92.86,4.38s.58,2.92.86,4.39l.87,4.4.87,4.41.87,4.44c.3,1.48.59,3,.88,4.46s.59,3,.89,4.49.59,3,.89,4.53.6,3,.9,4.56.6,3.06.9,4.61l.92,4.65q.47,2.34.93,4.71c.31,1.57.62,3.16.93,4.76s.64,3.2.95,4.82.64,3.25,1,4.89.64,3.29,1,5,.66,3.34,1,5,.67,3.39,1,5.11.68,3.45,1,5.2.69,3.5,1,5.28l1.06,5.38c.36,1.8.72,3.63,1.08,5.47s.73,3.7,1.1,5.57.74,3.77,1.11,5.68.76,3.84,1.14,5.79l4.7-.69,4-.59,4-.58,4.7-.67v36.78l-5.74.82-5.4.78-5.1.75-4.87.72-4.68.7-4.55.68-4.48.68-4.44.68-4.47.69-4.55.71-4.67.73-4.87.77-5.09.81-5.39.87-5.73.93v-36.78l4.51-.73,3.92-.64,3.72-.6,3.92-.62,4.52-.71q-.59-2.88-1.12-5.55c-.36-1.79-.71-3.51-1-5.18s-.67-3.28-1-4.86-.63-3.12-.94-4.63-.6-3-.89-4.46-.59-2.91-.88-4.35L426,1084l-.88-4.36c-.29-1.46-.59-2.94-.9-4.45s-.61-3.05-.93-4.63-.64-3.2-1-4.87-.68-3.38-1-5.17l-1.12-5.54-5.29.86-4.91.8-4.61.76-4.37.72-4.22.71-4.14.7-4.14.7-4.22.72-4.37.75-4.6.8-4.91.86-5.28.93c-.35,1.9-.69,3.73-1,5.51s-.64,3.49-.95,5.15-.6,3.29-.89,4.87-.57,3.13-.85,4.64-.54,3-.81,4.46-.54,2.91-.8,4.35l-.78,4.28c-.26,1.43-.53,2.86-.79,4.29s-.53,2.88-.79,4.35-.54,2.95-.82,4.46-.56,3.06-.85,4.64-.59,3.2-.89,4.87-.62,3.39-.95,5.16-.66,3.61-1,5.51l5.23-.94,4.51-.8,4.51-.8,5.24-.92v36.78l-5.42,1-5.12.91-4.85.87-4.63.83-4.46.81-4.33.79-4.23.78-4.2.77-4.19.78-4.24.8-4.32.81-4.45.85-4.63.88-4.84.93-5.1,1-5.41,1.06v-36.78Zm74.42-115.31,5.11-.89,4.65-.81,4.31-.74,4.11-.7,4.05-.68,4.12-.69,4.31-.72,4.65-.77,5.12-.84c-.39-2-.76-3.87-1.13-5.74s-.73-3.69-1.08-5.48-.7-3.54-1-5.26l-1-5.06c-.33-1.65-.65-3.28-1-4.88s-.63-3.18-.93-4.74-.61-3.1-.91-4.62-.6-3-.89-4.53-.59-3-.88-4.45l-.87-4.42-.87-4.41c-.29-1.46-.58-2.94-.87-4.41l-.87-4.46c-.3-1.5-.59-3-.89-4.52s-.61-3.06-.91-4.62-.62-3.13-.93-4.74l-1-4.88c-.32-1.65-.65-3.34-1-5s-.68-3.47-1-5.26-.72-3.61-1.08-5.48-.75-3.77-1.13-5.73c-.35,1.9-.7,3.77-1,5.59s-.67,3.62-1,5.37-.65,3.47-1,5.16-.61,3.35-.92,5-.59,3.24-.88,4.82-.58,3.14-.87,4.67-.56,3.06-.84,4.56-.55,3-.82,4.46-.54,2.94-.81,4.39-.53,2.89-.8,4.33-.53,2.87-.79,4.3-.53,2.86-.79,4.29-.53,2.86-.8,4.3-.53,2.88-.79,4.33-.54,2.91-.81,4.39-.55,3-.83,4.46-.55,3-.84,4.56-.57,3.1-.86,4.68-.59,3.18-.89,4.82-.6,3.29-.92,5-.62,3.41-.95,5.16-.65,3.55-1,5.38S372.76,1023.92,372.41,1025.83Z" transform="translate(-93.72 -143.47)"/><path class="cls-1" d="M529.54,1140.16l-3.64-3.73-3.34-3.42-3.11-3.18c-1-1-2-2-3-3l-2.88-2.94-2.88-2.94-2.95-3-3.11-3.17-3.34-3.39c-1.16-1.18-2.36-2.41-3.64-3.7V852c1.16-1.5,2.26-2.93,3.33-4.3l3.06-4L507,840l2.72-3.52c.89-1.14,1.76-2.27,2.63-3.4l2.61-3.36,2.64-3.4,2.72-3.51,2.87-3.69,3.06-3.94,3.33-4.28,5.67-.73,5.32-.68,5.05-.64,4.81-.6,4.63-.57,4.49-.56,4.43-.53,4.39-.53,4.42-.52,4.5-.53,4.64-.54,4.81-.55,5-.57,5.34-.6,5.67-.63,3.45,3.83,3.16,3.51,3,3.28,2.8,3.11,2.72,3,2.73,3,2.8,3.12,2.94,3.28,3.17,3.54,3.45,3.85v48.1l-5.28.54-4.8.5-4.46.46-4.25.45-4.17.45-4.25.46-4.46.49-4.79.53-5.28.59v-48.1l-5.49.62-5.06.59-4.74.55-4.49.53-4.35.52-4.3.51-4.35.53-4.5.55-4.73.59-5,.63-5.49.7v255.7l5.49-.69,5-.64,4.73-.58,4.5-.55,4.35-.53,4.3-.52,4.35-.52,4.49-.53,4.74-.55,5.06-.58,5.49-.62V1046l5.28-.59,4.79-.54,4.46-.48L610,1044l4.17-.45,4.25-.45,4.46-.47,4.8-.49,5.28-.54v49.87l-3.15,4.16c-1,1.33-2,2.6-2.91,3.84l-2.71,3.59-2.58,3.41-2.5,3.31-2.47,3.27-2.5,3.31-2.58,3.42-2.71,3.61-2.91,3.85-3.15,4.19-5.67.63-5.34.59-5,.58-4.81.55-4.64.54-4.5.53-4.42.52-4.39.53-4.43.53-4.49.55-4.63.58-4.81.6-5.05.64-5.32.68Z" transform="translate(-93.72 -143.47)"/><path class="cls-1" d="M736.54,957.93q-1.17,2.51-2.25,4.85c-.73,1.56-1.43,3.06-2.1,4.52l-2,4.26c-.64,1.38-1.26,2.73-1.88,4.05l-1.8,3.9q-.9,1.92-1.77,3.81c-.59,1.27-1.17,2.52-1.75,3.79s-1.18,2.53-1.77,3.81-1.2,2.58-1.81,3.91l-1.88,4-2,4.27-2.1,4.53-2.25,4.87v71.79l5.19-.41,4.47-.34,4.47-.34,5.2-.39v36.78l-5.5.41-5.2.4-5,.38-4.73.38-4.56.36-4.42.37-4.32.35-4.26.36-4.24.36-4.26.37-4.32.38-4.42.39-4.55.41-4.73.43-4.94.46-5.2.49-5.49.53v-36.79l5.19-.49,4.46-.42,4.47-.42,5.19-.47V832.17l-5.19.48-4.47.41-4.46.42-5.19.5V797.2l5.49-.53,5.2-.49,4.94-.46,4.73-.43,4.55-.41,4.42-.39,4.32-.38,4.26-.37,4.24-.36,4.26-.36,4.32-.35,4.42-.36,4.56-.37,4.73-.38,5-.38,5.2-.4,5.5-.41v36.78l-5.2.39-4.47.34-4.47.35-5.19.41V934l2.38-5.15,2.29-5q1.13-2.43,2.21-4.78t2.14-4.61l2.07-4.48,2-4.34,2-4.24,1.92-4.14,1.88-4.06,1.86-4c.62-1.32,1.23-2.64,1.84-4s1.22-2.63,1.82-3.94l1.83-3.92c.61-1.31,1.21-2.62,1.82-3.94s1.23-2.63,1.84-4,1.24-2.65,1.86-4,1.25-2.7,1.89-4.06,1.27-2.74,1.92-4.13l2-4.23,2-4.33,2.07-4.45q1.06-2.26,2.14-4.6c.73-1.55,1.46-3.14,2.22-4.75l2.29-4.93,2.38-5.11-5,.33-4.31.29-4.31.3-5,.35V789.45l5.58-.39,5.25-.35,5-.34,4.73-.31,4.56-.29,4.43-.28,4.36-.27,4.33-.26,4.35-.26,4.43-.26,4.56-.26,4.74-.26,5-.28,5.26-.27,5.58-.29v36.78l-4.06.21-3.5.18-3.5.19-4.07.22c-.84,1.79-1.66,3.52-2.46,5.21s-1.57,3.32-2.33,4.93l-2.21,4.69c-.73,1.52-1.43,3-2.12,4.48s-1.37,2.91-2,4.32l-2,4.2-1.94,4.1c-.64,1.35-1.27,2.7-1.91,4s-1.26,2.69-1.9,4-1.27,2.69-1.91,4.05l-1.93,4.11-2,4.19-2,4.33-2.12,4.5c-.72,1.54-1.46,3.1-2.22,4.71l-2.33,5q-1.18,2.54-2.46,5.22c.5,1.89,1,3.74,1.46,5.58s1,3.64,1.42,5.43l1.39,5.3c.46,1.74.91,3.47,1.35,5.17l1.33,5.06q.65,2.5,1.29,5t1.27,4.85l1.24,4.75,1.22,4.67q.62,2.32,1.2,4.59c.4,1.52.79,3,1.19,4.52l1.16,4.46c.39,1.48.77,3,1.15,4.41l1.14,4.36c.38,1.44.76,2.88,1.13,4.31s.75,2.87,1.12,4.29.75,2.85,1.12,4.27l1.11,4.25c.37,1.41.74,2.82,1.1,4.24l1.11,4.24,1.11,4.25c.37,1.42.75,2.84,1.12,4.27s.74,2.85,1.12,4.29.75,2.87,1.13,4.32l1.14,4.36c.38,1.46.76,2.93,1.15,4.41s.77,3,1.17,4.46.78,3,1.18,4.53.79,3,1.2,4.6.81,3.1,1.22,4.68.82,3.16,1.24,4.76l1.27,4.86c.43,1.63.86,3.29,1.3,5s.87,3.36,1.32,5.07.9,3.44,1.35,5.19l1.39,5.31,1.42,5.45q.72,2.76,1.46,5.59l4.26-.22,3.66-.18,3.66-.18,4.26-.21v36.79l-5.56.27-5.09.25-4.74.24-4.5.24-4.39.23-4.39.24-4.51.26-4.74.27-5.08.3-5.56.33q-.75-2.88-1.5-5.69l-1.45-5.52q-.72-2.71-1.42-5.36t-1.38-5.23l-1.34-5.09-1.31-5-1.28-4.86q-.63-2.4-1.26-4.76c-.41-1.56-.82-3.12-1.23-4.66s-.81-3.07-1.21-4.58-.79-3-1.19-4.52-.79-3-1.18-4.46-.77-2.94-1.16-4.41l-1.15-4.37c-.39-1.45-.77-2.9-1.15-4.34l-1.14-4.33-1.14-4.32-1.15-4.33-1.14-4.34-1.16-4.37c-.38-1.47-.77-2.93-1.16-4.41s-.78-3-1.18-4.45-.79-3-1.19-4.51-.8-3-1.21-4.58-.82-3.09-1.23-4.66-.83-3.15-1.25-4.75-.85-3.21-1.28-4.85-.87-3.28-1.32-5-.88-3.37-1.34-5.08-.91-3.45-1.37-5.22-.94-3.54-1.42-5.35-1-3.64-1.46-5.5Z" transform="translate(-93.72 -143.47)"/><path class="cls-1" d="M1250.11,1059.19l-1.33-5.72q-.66-2.82-1.29-5.56t-1.26-5.43q-.63-2.67-1.23-5.28c-.41-1.74-.81-3.47-1.2-5.17l-1.18-5-1.15-4.94c-.38-1.63-.75-3.24-1.12-4.84s-.74-3.18-1.11-4.75-.72-3.13-1.08-4.67-.72-3.08-1.07-4.6-.71-3-1.06-4.53-.7-3-1-4.48-.69-3-1-4.44-.69-2.94-1-4.4l-1-4.37c-.33-1.45-.67-2.9-1-4.35s-.67-2.9-1-4.35-.67-2.89-1-4.34l-1-4.36c-.33-1.45-.67-2.91-1-4.37s-.69-2.92-1-4.4-.68-2.94-1-4.43-.69-3-1-4.48-.7-3-1.06-4.53-.71-3.05-1.07-4.59-.72-3.1-1.08-4.66-.74-3.15-1.11-4.75l-1.13-4.83q-.57-2.44-1.15-4.93t-1.17-5c-.39-1.7-.8-3.41-1.2-5.15s-.82-3.5-1.23-5.28-.84-3.58-1.26-5.41l-1.3-5.55c-.43-1.88-.88-3.78-1.33-5.71v193.46l5.2.3,4.48.27,4.47.27,5.2.33v36.78l-5.57-.35-5.28-.32-5-.3-4.8-.27-4.62-.27-4.48-.24-4.39-.24-4.32-.23-4.31-.22-4.32-.22-4.39-.22-4.48-.21-4.62-.22-4.81-.22-5-.22-5.28-.23-5.57-.23v-36.78l5.29.22,4.56.19,4.56.2,5.3.24V821l-5.3-.24-4.56-.2-4.56-.2-5.29-.22V783.39l5.68.24,5.37.23,5.09.22,4.86.22,4.67.22,4.54.22,4.45.22,4.4.23,4.4.23,4.45.23,4.54.25,4.68.26,4.85.28,5.09.29,5.36.32,5.68.35q.63,2.91,1.21,5.7c.4,1.87.79,3.69,1.17,5.49s.75,3.56,1.12,5.29.73,3.44,1.08,5.12.71,3.33,1,5,.69,3.23,1,4.82.67,3.15,1,4.7.65,3.08,1,4.59.64,3,1,4.52.63,3,.94,4.44.62,2.94.93,4.4.62,2.92.93,4.38.62,2.91.92,4.36l.93,4.38.93,4.4c.31,1.48.63,3,.94,4.45s.64,3,1,4.52.65,3,1,4.59.66,3.12,1,4.71.68,3.19,1,4.82.7,3.28,1,5,.72,3.39,1.08,5.12.75,3.5,1.13,5.3.76,3.63,1.16,5.5.8,3.77,1.21,5.71c.42-1.89.83-3.73,1.24-5.54s.8-3.59,1.19-5.34.78-3.45,1.15-5.14.75-3.34,1.12-5,.72-3.23,1.08-4.81.7-3.14,1-4.68.68-3.06,1-4.56.67-3,1-4.47.66-2.93,1-4.38.65-2.88,1-4.31.64-2.86,1-4.28l1-4.24c.31-1.41.63-2.82,1-4.24s.63-2.82,1-4.24.63-2.84.95-4.27.65-2.87,1-4.32.65-2.9,1-4.37.67-3,1-4.46l1-4.56,1-4.68c.36-1.58.72-3.18,1.08-4.81l1.12-5c.37-1.69.76-3.4,1.15-5.14s.79-3.51,1.19-5.32.82-3.65,1.24-5.53l5.65.43,5.34.42,5.05.41,4.83.39,4.65.39,4.51.38,4.42.37,4.38.38,4.37.39,4.42.39,4.51.41,4.64.42,4.83.45,5.06.48,5.32.51,5.64.55v36.78l-5.18-.51-4.47-.42-4.46-.43-5.19-.48v255.7l5.19.49,4.46.42,4.47.43,5.18.5v36.79l-5.56-.54-5.26-.51-5-.47-4.79-.45-4.61-.42-4.48-.4-4.37-.39-4.32-.38-4.3-.38-4.32-.36-4.37-.37-4.48-.38-4.61-.37-4.8-.39-5-.4-5.27-.41-5.57-.42v-36.78l5.19.39,4.47.35,4.47.35,5.2.42V891.28c-.47,1.92-.92,3.81-1.37,5.67l-1.33,5.53q-.66,2.71-1.29,5.37t-1.26,5.24c-.42,1.73-.83,3.43-1.23,5.12s-.81,3.35-1.21,5-.78,3.27-1.17,4.88l-1.15,4.8c-.38,1.58-.76,3.14-1.14,4.7s-.74,3.09-1.11,4.62-.73,3-1.09,4.55-.72,3-1.08,4.49-.72,3-1.07,4.44-.71,2.94-1.06,4.4l-1.05,4.37c-.35,1.45-.69,2.89-1,4.34s-.7,2.89-1,4.33-.69,2.88-1,4.32-.69,2.89-1,4.33l-1,4.34c-.34,1.45-.69,2.91-1.05,4.37l-1,4.4c-.36,1.47-.71,3-1.07,4.44s-.72,3-1.08,4.5-.73,3-1.1,4.56-.73,3.07-1.11,4.62-.75,3.13-1.13,4.71l-1.15,4.8c-.39,1.61-.78,3.25-1.18,4.9s-.8,3.31-1.2,5-.82,3.4-1.23,5.13-.84,3.48-1.26,5.25-.86,3.57-1.3,5.39l-1.33,5.53q-.67,2.8-1.36,5.69Z" transform="translate(-93.72 -143.47)"/><path class="cls-1" d="M1422.13,1097.41l5.18.61,4.46.53,4.45.54,5.18.62V844l-4.83-.59-4.3-.51-4-.48-3.88-.46-4-.46-4.31-.5-4.83-.55v48.1l-5.21-.59-4.69-.52L1397,887l-4.17-.46-4.17-.45-4.35-.46-4.69-.49-5.21-.54V799.68l5.77.6,5.61.6,5.47.58,5.33.58,5.21.58,5.09.57,5,.56,4.87.56,4.79.55,4.71.55,4.63.55,4.57.55,4.52.54,4.47.55,4.43.55,4.41.55,4.39.55,4.37.56,4.38.56,4.39.57,4.4.57,4.43.59,4.47.6,4.51.6,4.56.62,4.62.64,4.7.65,4.78.67,4.86.69,5,.7,5.07.73,5.19.76,5.31.78,5.45.81,5.59.84,5.74.87v84.88l-5.19-.79-4.67-.7-4.32-.64-4.16-.62-4.16-.61-4.32-.63-4.68-.67-5.19-.74v-48.1l-4.82-.69-4.3-.6-4-.55-3.87-.54-4-.54-4.3-.58-4.83-.65V1105l4.91.66,4.26.58,4,.56,4.26.58,4.91.69v36.78l-5.69-.79-5.38-.74-5.12-.7-4.9-.66-4.71-.63-4.58-.6-4.47-.59-4.41-.57-4.4-.56-4.41-.56-4.48-.57-4.58-.57-4.72-.58-4.9-.6-5.13-.61-5.39-.64c-1.85-.22-3.74-.45-5.7-.67v-36.79Z" transform="translate(-93.72 -143.47)"/><path class="cls-1" d="M1692.29,1023.59l-5.64-1.08-5.28-1-5-1-4.75-.89-4.57-.86-4.45-.82-4.39-.81-4.4-.81-4.45-.8-4.57-.83-4.76-.85-5-.89-5.29-.93-5.65-1v115.65l4.88.86,4.24.74,4,.71,4.25.76,4.88.88v36.78l-5.66-1-5.36-1-5.09-.9-4.88-.85-4.69-.81-4.56-.79-4.45-.76-4.4-.75-4.37-.73-4.4-.74-4.45-.74-4.56-.75-4.7-.76-4.89-.79-5.1-.82-5.37-.86-5.68-.89v-36.78l5.16.81,4.44.7,4.44.71,5.15.83V864.11l-5.15-.83-4.44-.71-4.44-.71-5.16-.81V824.27l5.68.89,5.37.86,5.1.82,4.89.79,4.7.76,4.56.75,4.45.74,4.4.74,4.37.73,4.4.75,4.45.76,4.56.79,4.69.81,4.88.85,5.09.9,5.36.95,5.66,1V875l-4.88-.87-4.25-.76-4-.71-4.24-.75-4.88-.85V973.94l5.65,1,5.29.94,5,.88,4.76.85,4.57.83,4.45.81,4.4.8,4.39.81,4.45.83,4.57.85,4.75.9,5,.94,5.28,1,5.64,1.09V883.54l-4.88-.94-4.23-.81-4-.77-4.24-.8-4.88-.91V842.52l5.65,1.07,5.35,1,5.09,1,4.86.94,4.69.9,4.54.89,4.43.87,4.38.87,4.36.86,4.38.88,4.43.89,4.54.92,4.67,1,4.86,1,5.07,1.05,5.34,1.11,5.63,1.18v36.79l-5.12-1.08-4.41-.92-4.41-.92-5.13-1v255.7l5.13,1.06,4.41.91,4.41.93,5.12,1.07v36.78l-5.63-1.18-5.34-1.11-5.07-1-4.86-1-4.67-1-4.54-.92-4.43-.89-4.38-.88-4.36-.86-4.38-.87-4.43-.87-4.54-.89-4.69-.9-4.86-.94-5.09-1-5.35-1-5.65-1.07V1135l4.88.92,4.24.8,4,.76,4.23.81,4.88.94V1023.59Z" transform="translate(-93.72 -143.47)"/><path class="cls-1" d="M1770,1105.29l5.21,1.13,4.73,1,4.4,1,4.19.92,4.12.92,4.19.93,4.39,1,4.73,1.07,5.2,1.18v49.87l5.28,1.21,4.89,1.13,4.59,1.06,4.36,1,4.2,1,4.13,1,4.13,1,4.2,1,4.36,1,4.58,1.11,4.88,1.18,5.27,1.29V1061.62l-5.06-2.35-4.79-2.21-4.56-2.11-4.36-2L1843,1051l-4.07-1.86-4-1.82-3.93-1.79-3.92-1.77c-1.3-.6-2.61-1.19-3.93-1.78l-4-1.8-4.07-1.84-4.21-1.89-4.37-2-4.57-2-4.8-2.14-5.08-2.25-2.8-4.24c-.88-1.35-1.73-2.63-2.54-3.86s-1.6-2.42-2.36-3.58l-2.26-3.41-2.22-3.36c-.74-1.12-1.48-2.25-2.25-3.4l-2.36-3.58-2.55-3.84-2.8-4.23V899.45l4-3.78c1.28-1.2,2.49-2.34,3.67-3.43l3.39-3.18,3.24-3,3.19-3,3.24-3,3.4-3.17,3.65-3.41,4-3.74,5.45,1.23,5.15,1.17,4.89,1.12,4.66,1.08,4.48,1,4.36,1,4.26,1,4.22,1,4.22,1,4.26,1,4.35,1,4.48,1.08,4.66,1.13,4.87,1.19,5.13,1.25,5.44,1.35c1.08,1.6,2.1,3.13,3.09,4.61s1.94,2.88,2.85,4.25l2.67,4,2.53,3.78,2.45,3.66,2.43,3.62q1.2,1.81,2.45,3.67c.82,1.24,1.66,2.49,2.53,3.79l2.66,4q1.37,2.07,2.85,4.27l3.09,4.64v48.1l-5.09-1.31-4.63-1.17-4.3-1.09-4.09-1-4-1-4.1-1-4.3-1.06-4.63-1.15-5.1-1.25v-48.1l-5.27-1.28-4.88-1.19-4.58-1.1-4.36-1-4.2-1-4.13-1-4.13-1-4.2-1-4.36-1-4.59-1.07-4.89-1.13-5.28-1.2v87l5.07,2.25,4.8,2.14,4.56,2,4.37,2,4.2,1.89,4.07,1.84,4,1.8,3.93,1.78,3.9,1.78,3.93,1.79,4,1.82,4.07,1.87,4.19,1.93,4.36,2,4.55,2.1,4.79,2.22,5,2.36,3,4.41,2.72,4c.87,1.26,1.7,2.48,2.52,3.68l2.41,3.53,2.42,3.54,2.52,3.69,2.71,4,3,4.42v127l-3.74,3.7-3.41,3.36-3.15,3.12-3,3-3,2.94-3,3-3.16,3.14-3.41,3.38-3.74,3.72-5.44-1.35-5.13-1.26-4.87-1.18-4.66-1.13-4.48-1.08-4.35-1-4.26-1-4.22-1-4.22-1-4.26-1-4.36-1-4.48-1-4.66-1.08-4.89-1.12-5.15-1.17-5.45-1.23c-1.16-1.6-2.26-3.13-3.33-4.59l-3.06-4.23-2.86-4-2.72-3.75-2.64-3.63-2.61-3.59-2.63-3.63c-.89-1.22-1.8-2.46-2.72-3.74l-2.87-3.93-3.07-4.21-3.32-4.57v-49.86Z" transform="translate(-93.72 -143.47)"/><circle class="cls-2" cx="906.28" cy="368.23" r="83.95"/><path class="cls-1" d="M1000,430.84a80.86,80.86,0,1,1-80.86,80.86A80.86,80.86,0,0,1,1000,430.84m0-3.23A83.81,83.81,0,0,0,953,442a84,84,0,0,0-22.71,116.74A84.41,84.41,0,0,0,953,581.42a84,84,0,0,0,94,0,84.3,84.3,0,0,0,30.46-37,84.36,84.36,0,0,0,0-65.47A84.54,84.54,0,0,0,1047,442a83.81,83.81,0,0,0-47-14.36Z" transform="translate(-93.72 -143.47)"/><path class="cls-1" d="M1000,381.46A129.95,129.95,0,1,0,1129.94,511.4,129.94,129.94,0,0,0,1000,381.46ZM1116.65,561a126.57,126.57,0,0,1-91.14,74.75,127.89,127.89,0,0,1-51,0,126.62,126.62,0,0,1,0-248.07,127.89,127.89,0,0,1,51,0A126.66,126.66,0,0,1,1116.65,561Z" transform="translate(-93.72 -143.47)"/><path class="cls-2" d="M1011.21,410.74l2.62.36,3,7.89,5.59.77-3.73-9.05a8.72,8.72,0,0,0,2.31-1.2,8.09,8.09,0,0,0,1.72-1.84,7.46,7.46,0,0,0,.89-5.81,6.74,6.74,0,0,0-1.27-2.43,7.91,7.91,0,0,0-2.22-1.84,8.62,8.62,0,0,0-3-1l-8.91-1.23-3,22,5.06.7Z" transform="translate(-93.72 -143.47)"/><path class="cls-2" d="M956.05,420.41a11.45,11.45,0,0,0,3.43,2.56,10.82,10.82,0,0,0,4.08,1.07,11,11,0,0,0,8-2.91,10.75,10.75,0,0,0,2.44-3.44,11.68,11.68,0,0,0,1-4.17,11.32,11.32,0,0,0-.71-4.47,11.18,11.18,0,0,0-2.33-3.86,11.51,11.51,0,0,0-3.43-2.58,10.81,10.81,0,0,0-4.08-1.06A10.74,10.74,0,0,0,954,407.9a11.47,11.47,0,0,0-1,4.18,11.81,11.81,0,0,0,3,8.33Z" transform="translate(-93.72 -143.47)"/><path class="cls-2" d="M1031,422a10.72,10.72,0,0,0,12,2.19,11.7,11.7,0,0,0,3.5-2.46,11.89,11.89,0,0,0,3.28-8.24,11.59,11.59,0,0,0-.86-4.21,10.69,10.69,0,0,0-2.34-3.51,10.39,10.39,0,0,0-3.63-2.37,10.58,10.58,0,0,0-4.27-.77,10.74,10.74,0,0,0-4.11.95,11.53,11.53,0,0,0-3.51,2.48,11.84,11.84,0,0,0-3.27,8.24,11.57,11.57,0,0,0,.86,4.19A10.8,10.8,0,0,0,1031,422Z" transform="translate(-93.72 -143.47)"/><polygon class="cls-2" points="845.74 295.85 839.23 286.85 849.88 292.85 852.45 290.99 850.08 278.99 856.59 287.99 860.74 284.99 847.71 267 844 269.69 847.34 286.63 832.29 278.16 828.58 280.85 841.6 298.84 845.74 295.85"/><polygon class="cls-2" points="967.53 296.27 970.39 292.24 961.32 285.82 963.57 282.65 971.62 288.36 974.48 284.33 966.42 278.63 968.46 275.75 977.23 281.97 980.09 277.94 967.14 268.77 954.3 286.89 967.53 296.27"/><polygon class="cls-2" points="893.01 274.94 891.77 261.95 901.96 274.08 906.52 273.65 904.41 251.54 899.32 252.02 900.56 265.01 890.37 252.88 885.81 253.31 887.92 275.42 893.01 274.94"/><path class="cls-2" d="M1071.81,463.28a86.94,86.94,0,0,0-38.1-31.38,87,87,0,0,0-67.42,0A86.82,86.82,0,0,0,920.21,478a86.51,86.51,0,0,0,8,82.12,86.94,86.94,0,0,0,38.1,31.38,86.56,86.56,0,0,0,94.94-18.56,86.59,86.59,0,0,0,18.56-27.53,86.81,86.81,0,0,0,0-67.41A87.17,87.17,0,0,0,1071.81,463.28Z" transform="translate(-93.72 -143.47)"/><path class="cls-1" d="M954.37,600a5.61,5.61,0,0,0-4-2.17,5.79,5.79,0,0,0-2.26.27,6.33,6.33,0,0,0-2.06,1.16,7.31,7.31,0,0,0-2.44,4.46,6.18,6.18,0,0,0,.14,2.36,5.65,5.65,0,0,0,1,2,5.61,5.61,0,0,0,4,2.17A5.74,5.74,0,0,0,951,610a6.3,6.3,0,0,0,2.07-1.17,7.17,7.17,0,0,0,2.43-4.45,6.23,6.23,0,0,0-.13-2.37A5.61,5.61,0,0,0,954.37,600Z" transform="translate(-93.72 -143.47)"/><path class="cls-1" d="M934.05,585.61,931.18,583l-3.33,3.64,2.87,2.62a2.92,2.92,0,0,0,2,.88,2.48,2.48,0,0,0,2.38-2.61A2.89,2.89,0,0,0,934.05,585.61Z" transform="translate(-93.72 -143.47)"/><path class="cls-1" d="M974.06,615.35l-4.27-1.13-1.34,5.12,4.26,1.12a2.73,2.73,0,0,0,2.14-.26,2.52,2.52,0,0,0,.95-3.58A2.78,2.78,0,0,0,974.06,615.35Z" transform="translate(-93.72 -143.47)"/><path class="cls-1" d="M975.7,607,972,606l-1.17,4.43,3.75,1a2.39,2.39,0,0,0,1.88-.22,2.16,2.16,0,0,0,1.1-1.37,2.19,2.19,0,0,0-.28-1.73A2.44,2.44,0,0,0,975.7,607Z" transform="translate(-93.72 -143.47)"/><path class="cls-1" d="M1002.37,612.43a5.68,5.68,0,0,0-1.83-1.36,5.53,5.53,0,0,0-2.25-.51A5.4,5.4,0,0,0,996,611a5.64,5.64,0,0,0-1.88,1.29,6.36,6.36,0,0,0-1.28,2,6.71,6.71,0,0,0-.5,2.53,6.81,6.81,0,0,0,.41,2.54,6.18,6.18,0,0,0,1.22,2,5.68,5.68,0,0,0,1.83,1.36,5.37,5.37,0,0,0,2.25.51,5.24,5.24,0,0,0,2.26-.44,5.5,5.5,0,0,0,1.87-1.29,6.17,6.17,0,0,0,1.29-2,7.32,7.32,0,0,0,.09-5.08A6.35,6.35,0,0,0,1002.37,612.43Z" transform="translate(-93.72 -143.47)"/><path class="cls-2" d="M1071.81,463.28a86.94,86.94,0,0,0-38.1-31.38,87,87,0,0,0-67.42,0A86.82,86.82,0,0,0,920.21,478a86.51,86.51,0,0,0,8,82.12,86.94,86.94,0,0,0,38.1,31.38,86.56,86.56,0,0,0,94.94-18.56,86.59,86.59,0,0,0,18.56-27.53,86.81,86.81,0,0,0,0-67.41A87.17,87.17,0,0,0,1071.81,463.28Z" transform="translate(-93.72 -143.47)"/><path class="cls-1" d="M1034.56,418.49a5.46,5.46,0,0,0,1.92,1.27,5.31,5.31,0,0,0,2.28.39,5.57,5.57,0,0,0,2.2-.54,6.27,6.27,0,0,0,1.91-1.41,6.94,6.94,0,0,0,1.36-2.19,6.76,6.76,0,0,0,.51-2.53,6,6,0,0,0-.42-2.33,5.69,5.69,0,0,0-1.23-1.91,5.46,5.46,0,0,0-1.92-1.27,5.26,5.26,0,0,0-2.27-.39,5.62,5.62,0,0,0-2.21.54,6.27,6.27,0,0,0-1.91,1.41,7.27,7.27,0,0,0-1.87,4.71,6.31,6.31,0,0,0,.42,2.33A5.74,5.74,0,0,0,1034.56,418.49Z" transform="translate(-93.72 -143.47)"/><path class="cls-1" d="M1017.88,406a2.33,2.33,0,0,0,1-1.65,2.28,2.28,0,0,0-.49-1.84,2.85,2.85,0,0,0-2-1l-3.85-.53-.67,4.89,3.84.53A2.9,2.9,0,0,0,1017.88,406Z" transform="translate(-93.72 -143.47)"/><path class="cls-1" d="M959.82,417a6.17,6.17,0,0,0,1.87,1.46,5.78,5.78,0,0,0,2.19.61,5.42,5.42,0,0,0,2.28-.32,5.5,5.5,0,0,0,2-1.22,6,6,0,0,0,1.29-1.88,6.28,6.28,0,0,0,.48-2.32,6.76,6.76,0,0,0-.43-2.54,7.12,7.12,0,0,0-1.3-2.23,6.46,6.46,0,0,0-1.87-1.46,5.78,5.78,0,0,0-2.19-.61,5.6,5.6,0,0,0-2.28.33,5.37,5.37,0,0,0-2,1.22,5.9,5.9,0,0,0-1.29,1.87,6.36,6.36,0,0,0-.48,2.32,6.76,6.76,0,0,0,.43,2.54A7,7,0,0,0,959.82,417Z" transform="translate(-93.72 -143.47)"/><path class="cls-2" d="M956.05,420.41a11.45,11.45,0,0,0,3.43,2.56,10.82,10.82,0,0,0,4.08,1.07,11,11,0,0,0,8-2.91,10.75,10.75,0,0,0,2.44-3.44,11.68,11.68,0,0,0,1-4.17,11.32,11.32,0,0,0-.71-4.47,11.18,11.18,0,0,0-2.33-3.86,11.51,11.51,0,0,0-3.43-2.58,10.81,10.81,0,0,0-4.08-1.06A10.74,10.74,0,0,0,954,407.9a11.47,11.47,0,0,0-1,4.18,11.81,11.81,0,0,0,3,8.33Z" transform="translate(-93.72 -143.47)"/><polygon class="cls-2" points="845.74 295.85 839.23 286.85 849.88 292.85 852.45 290.99 850.08 278.99 856.59 287.99 860.74 284.99 847.71 267 844 269.69 847.34 286.63 832.29 278.16 828.58 280.85 841.6 298.84 845.74 295.85"/><path class="cls-2" d="M920.21,545.4a86.81,86.81,0,1,0-6.81-33.7A86.78,86.78,0,0,0,920.21,545.4Z" transform="translate(-93.72 -143.47)"/><path class="cls-2" d="M958.3,597a11,11,0,0,0-7.45-4.08,10.77,10.77,0,0,0-4.2.44,11.57,11.57,0,0,0-7.7,14.08,10.79,10.79,0,0,0,1.89,3.77,10.79,10.79,0,0,0,11.66,3.64,11.79,11.79,0,0,0,3.77-2,11.82,11.82,0,0,0,4.26-7.78,11.75,11.75,0,0,0-.33-4.28A10.82,10.82,0,0,0,958.3,597Z" transform="translate(-93.72 -143.47)"/><path class="cls-2" d="M940.11,587.28a7.58,7.58,0,0,0-.79-2.77,8.6,8.6,0,0,0-2-2.55l-6.64-6.06-15,16.42,3.78,3.44,5-5.47,2,1.78-2,8.21,4.16,3.8,2.06-9.58a9.13,9.13,0,0,0,2.59.33,8.1,8.1,0,0,0,2.45-.55,7.42,7.42,0,0,0,4-4.28A6.62,6.62,0,0,0,940.11,587.28Z" transform="translate(-93.72 -143.47)"/><polygon class="cls-2" points="893.01 274.94 891.77 261.95 901.96 274.08 906.52 273.65 904.41 251.54 899.32 252.02 900.56 265.01 890.37 252.88 885.81 253.31 887.92 275.42 893.01 274.94"/><path class="cls-2" d="M1031,422a10.72,10.72,0,0,0,12,2.19,11.7,11.7,0,0,0,3.5-2.46,11.89,11.89,0,0,0,3.28-8.24,11.59,11.59,0,0,0-.86-4.21,10.69,10.69,0,0,0-2.34-3.51,10.39,10.39,0,0,0-3.63-2.37,10.58,10.58,0,0,0-4.27-.77,10.74,10.74,0,0,0-4.11.95,11.53,11.53,0,0,0-3.51,2.48,11.84,11.84,0,0,0-3.27,8.24,11.57,11.57,0,0,0,.86,4.19A10.8,10.8,0,0,0,1031,422Z" transform="translate(-93.72 -143.47)"/><polygon class="cls-2" points="967.53 296.27 970.39 292.24 961.32 285.82 963.57 282.65 971.62 288.36 974.48 284.33 966.42 278.63 968.46 275.75 977.23 281.97 980.09 277.94 967.14 268.77 954.3 286.89 967.53 296.27"/><path class="cls-2" d="M1011.21,410.74l2.62.36,3,7.89,5.59.77-3.73-9.05a8.72,8.72,0,0,0,2.31-1.2,8.09,8.09,0,0,0,1.72-1.84,7.46,7.46,0,0,0,.89-5.81,6.74,6.74,0,0,0-1.27-2.43,7.91,7.91,0,0,0-2.22-1.84,8.62,8.62,0,0,0-3-1l-8.91-1.23-3,22,5.06.7Z" transform="translate(-93.72 -143.47)"/><rect class="cls-2" x="1035.56" y="598.7" width="5.11" height="22.21" transform="translate(-244.14 274.15) rotate(-21.25)"/><path class="cls-2" d="M1061.59,600.87a4.76,4.76,0,0,1-.13,2.83,5.11,5.11,0,0,1-2.3,2.61,5.48,5.48,0,0,1-2.17.79,5.78,5.78,0,0,1-2.27-.15,6.23,6.23,0,0,1-2.13-1.05,7,7,0,0,1-1.72-1.92,6.7,6.7,0,0,1-.95-2.4,6.24,6.24,0,0,1,0-2.36,5.91,5.91,0,0,1,.88-2.1,5.55,5.55,0,0,1,1.67-1.6,5.43,5.43,0,0,1,1.66-.69,5,5,0,0,1,1.57-.11,4.33,4.33,0,0,1,1.4.38,5.41,5.41,0,0,1,1.18.76l4.31-3.08a10.52,10.52,0,0,0-2.68-1.91,10.19,10.19,0,0,0-3.17-1,10.45,10.45,0,0,0-3.43.09,10,10,0,0,0-3.44,1.37,10.57,10.57,0,0,0-3.16,3,10.78,10.78,0,0,0-1.69,3.87,11.64,11.64,0,0,0-.1,4.29,11.47,11.47,0,0,0,1.6,4.22,11.29,11.29,0,0,0,3.08,3.32,11.47,11.47,0,0,0,3.87,1.8,10.7,10.7,0,0,0,8.29-1.29,10.58,10.58,0,0,0,2.84-2.53,10.9,10.9,0,0,0,1.66-3.06,10.27,10.27,0,0,0,.53-3.3,10.93,10.93,0,0,0-.52-3.24Z" transform="translate(-93.72 -143.47)"/><path class="cls-2" d="M1083.25,584a6.06,6.06,0,0,0-2.89-1.76,6.51,6.51,0,0,0-2.88,0,10.07,10.07,0,0,0-2.71,1l-2.42,1.28a11.78,11.78,0,0,1-2,.87,1.34,1.34,0,0,1-1.44-.31,1.93,1.93,0,0,1-.52-1.55,3.24,3.24,0,0,1,2.9-2.75,2.79,2.79,0,0,1,2,1l3.26-3.72a7.19,7.19,0,0,0-2.36-1.61,6.65,6.65,0,0,0-2.68-.5,7.07,7.07,0,0,0-2.77.67,9.13,9.13,0,0,0-2.66,1.89,9.94,9.94,0,0,0-2,2.72,8.19,8.19,0,0,0-.78,2.74,6,6,0,0,0,.3,2.53,5.6,5.6,0,0,0,1.31,2.1,5.69,5.69,0,0,0,2.84,1.71,6.48,6.48,0,0,0,2.84,0,10.9,10.9,0,0,0,2.7-1l2.43-1.28a11.11,11.11,0,0,1,2-.82,1.43,1.43,0,0,1,1.49.35,2.12,2.12,0,0,1,.59,1.68,3.18,3.18,0,0,1-1.1,2.06q-2.25,2.24-4.37.11l-3.25,3.72a7.49,7.49,0,0,0,2.43,1.68,6.48,6.48,0,0,0,2.74.51,7,7,0,0,0,2.87-.73,10.3,10.3,0,0,0,2.8-2,11,11,0,0,0,2.14-2.86,8.3,8.3,0,0,0,.86-2.84,5.93,5.93,0,0,0-1.7-4.77Z" transform="translate(-93.72 -143.47)"/><path class="cls-2" d="M1006,609a10.67,10.67,0,0,0-7.66-3.4,10.7,10.7,0,0,0-7.78,3.14,11.43,11.43,0,0,0-2.41,3.55,11.93,11.93,0,0,0-.15,8.87,11.79,11.79,0,0,0,2.29,3.62,10.81,10.81,0,0,0,3.43,2.45,10.62,10.62,0,0,0,4.23.94,10.74,10.74,0,0,0,4.27-.79,11,11,0,0,0,3.51-2.34,11.78,11.78,0,0,0,2.4-3.54,11.81,11.81,0,0,0,.15-8.87A11.52,11.52,0,0,0,1006,609Z" transform="translate(-93.72 -143.47)"/><path class="cls-2" d="M981.62,606.11a6.7,6.7,0,0,0-1.76-1.85,7.7,7.7,0,0,0-2.57-1.19l-9.2-2.43-5.67,21.48,9.72,2.57a7.9,7.9,0,0,0,3,.23,7.63,7.63,0,0,0,2.57-.78,6.11,6.11,0,0,0,2-1.62,6,6,0,0,0,1.15-2.3,5,5,0,0,0,.1-2.53,6.65,6.65,0,0,0-.76-1.87,6.32,6.32,0,0,0-1.4-1.61,6,6,0,0,0,1.52-.62,5.49,5.49,0,0,0,1.21-1,4,4,0,0,0,.91-1.77,5.72,5.72,0,0,0,.11-2.43A6.37,6.37,0,0,0,981.62,606.11Z" transform="translate(-93.72 -143.47)"/><polygon class="cls-2" points="934.45 458.5 917.02 462.17 918.04 467 924.25 465.69 927.8 482.6 932.8 481.55 929.25 464.64 935.46 463.33 934.45 458.5"/><path class="cls-1" d="M1000,387.59A124.11,124.11,0,1,0,1124.11,511.7,124.11,124.11,0,0,0,1000,387.59Zm73.81,33.82-2.85,4-8.78-6.22-2,2.88,8.06,5.7-2.85,4-8.06-5.71-2.24,3.17,9.06,6.42-2.85,4L1048,430.36l12.85-18.12Zm-45.14-11.58a11.31,11.31,0,0,1,2.43-3.79,11.53,11.53,0,0,1,3.51-2.48,10.74,10.74,0,0,1,4.11-.95,10.58,10.58,0,0,1,4.27.77,10.39,10.39,0,0,1,3.63,2.37,10.69,10.69,0,0,1,2.34,3.51,11.59,11.59,0,0,1,.86,4.21,11.89,11.89,0,0,1-3.28,8.24,11.7,11.7,0,0,1-3.5,2.46,10.81,10.81,0,0,1-12-2.19,10.8,10.8,0,0,1-2.34-3.51,11.57,11.57,0,0,1-.86-4.19A11.33,11.33,0,0,1,1028.67,409.83Zm-20.51-14.46,8.91,1.23a8.62,8.62,0,0,1,3,1,7.91,7.91,0,0,1,2.22,1.84,6.74,6.74,0,0,1,1.27,2.43,7.46,7.46,0,0,1-.89,5.81,8.09,8.09,0,0,1-1.72,1.84,8.72,8.72,0,0,1-2.31,1.2l3.73,9.05-5.59-.77-3-7.89-2.62-.36-1,7.34-5.06-.7Zm-24.06,1,10.19,12.14-1.24-13,5.09-.48,2.11,22.11-4.57.43-10.19-12.13,1.24,13-5.09.48-2.11-22.11ZM953,412.08a11.47,11.47,0,0,1,1-4.18,10.8,10.8,0,0,1,10.43-6.35,10.81,10.81,0,0,1,4.08,1.06,11.51,11.51,0,0,1,3.43,2.58,11.18,11.18,0,0,1,2.33,3.86,11.32,11.32,0,0,1,.71,4.47,11.68,11.68,0,0,1-1,4.17,10.75,10.75,0,0,1-2.44,3.44,11,11,0,0,1-8,2.91,10.82,10.82,0,0,1-4.08-1.07,11.45,11.45,0,0,1-3.43-2.56,11.81,11.81,0,0,1-3-8.33Zm-27,9.55,15.06,8.47-3.35-17,3.72-2.68,13,18-4.14,3-6.51-9,2.37,12-2.58,1.86-10.65-6,6.51,9-4.14,3-13-18Zm2.18,41.65a86.94,86.94,0,0,1,38.1-31.38,87,87,0,0,1,67.42,0A86.82,86.82,0,0,1,1079.79,478a86.51,86.51,0,0,1-8,82.12,86.94,86.94,0,0,1-38.1,31.38,86.56,86.56,0,0,1-94.94-18.56,86.59,86.59,0,0,1-18.56-27.53,86.81,86.81,0,0,1,0-67.41A87.17,87.17,0,0,1,928.19,463.28ZM912.77,571.06a88.52,88.52,0,0,1-14.54-27.88,105.77,105.77,0,0,1,0-63.26A88.52,88.52,0,0,1,912.77,452l2.08,1.63c-25.05,31.92-25.05,83.84,0,115.75Zm23,23.22a8.1,8.1,0,0,1-2.45.55,9.13,9.13,0,0,1-2.59-.33l-2.06,9.58-4.16-3.8,2-8.21-2-1.78-5,5.47-3.78-3.44,15-16.42,6.64,6.06a8.6,8.6,0,0,1,2,2.55,7.58,7.58,0,0,1,.79,2.77,6.62,6.62,0,0,1-.33,2.72,7.42,7.42,0,0,1-4,4.28ZM960.53,605a11.82,11.82,0,0,1-4.26,7.78,11.79,11.79,0,0,1-3.77,2,10.86,10.86,0,0,1-11.66-3.64,10.79,10.79,0,0,1-1.89-3.77,11.58,11.58,0,0,1,7.7-14.08,10.77,10.77,0,0,1,4.2-.44A11,11,0,0,1,958.3,597a10.82,10.82,0,0,1,1.9,3.77A11.75,11.75,0,0,1,960.53,605Zm21.84,5.77a4,4,0,0,1-.91,1.77,5.49,5.49,0,0,1-1.21,1,6,6,0,0,1-1.52.62,6.32,6.32,0,0,1,1.4,1.61,6.65,6.65,0,0,1,.76,1.87,5,5,0,0,1-.1,2.53,6,6,0,0,1-1.15,2.3,6.11,6.11,0,0,1-2,1.62,7.63,7.63,0,0,1-2.57.78,7.9,7.9,0,0,1-3-.23l-9.72-2.57,5.67-21.48,9.2,2.43a7.7,7.7,0,0,1,2.57,1.19,6.7,6.7,0,0,1,1.76,1.85,6.37,6.37,0,0,1,.86,2.25A5.72,5.72,0,0,1,982.37,610.79Zm25.8,10.73a11.78,11.78,0,0,1-2.4,3.54,11,11,0,0,1-3.51,2.34,10.74,10.74,0,0,1-4.27.79,10.62,10.62,0,0,1-4.23-.94,10.81,10.81,0,0,1-3.43-2.45,11.79,11.79,0,0,1-2.29-3.62,11.93,11.93,0,0,1,.15-8.87,11.43,11.43,0,0,1,2.41-3.55,10.7,10.7,0,0,1,7.78-3.14A10.67,10.67,0,0,1,1006,609a11.52,11.52,0,0,1,2.28,3.63,11.81,11.81,0,0,1-.15,8.87Zm18.36,3.5-5,1.05L1018,609.16l-6.21,1.3-1-4.83,17.42-3.66,1,4.83-6.21,1.31Zm13.23-3.94-8-20.7,4.76-1.85,8,20.7Zm26.5-16.16a10.9,10.9,0,0,1-1.66,3.06,10.93,10.93,0,0,1-6.91,4,10.7,10.7,0,0,1-4.22-.21,11.47,11.47,0,0,1-3.87-1.8,11.29,11.29,0,0,1-3.08-3.32,11.47,11.47,0,0,1-1.6-4.22,11.64,11.64,0,0,1,.1-4.29,10.78,10.78,0,0,1,1.69-3.87,10.57,10.57,0,0,1,3.16-3,10,10,0,0,1,3.44-1.37,10.45,10.45,0,0,1,3.43-.09,10.19,10.19,0,0,1,3.17,1,10.52,10.52,0,0,1,2.68,1.91l-4.31,3.08a5.41,5.41,0,0,0-1.18-.76,4.33,4.33,0,0,0-1.4-.38,5,5,0,0,0-1.57.11,5.43,5.43,0,0,0-1.66.69,5.55,5.55,0,0,0-1.67,1.6,5.91,5.91,0,0,0-.88,2.1,6.24,6.24,0,0,0,0,2.36,6.7,6.7,0,0,0,.95,2.4,7,7,0,0,0,1.72,1.92,6.23,6.23,0,0,0,2.13,1.05,5.78,5.78,0,0,0,2.27.15,5.48,5.48,0,0,0,2.17-.79,5.11,5.11,0,0,0,2.3-2.61,4.76,4.76,0,0,0,.13-2.83l4.68-2.49a10.93,10.93,0,0,1,.52,3.24A10.27,10.27,0,0,1,1066.26,604.92ZM1085,588.81a8.3,8.3,0,0,1-.86,2.84,11,11,0,0,1-2.14,2.86,10.3,10.3,0,0,1-2.8,2,7,7,0,0,1-2.87.73,6.48,6.48,0,0,1-2.74-.51,7.49,7.49,0,0,1-2.43-1.68l3.25-3.72q2.12,2.13,4.37-.11a3.18,3.18,0,0,0,1.1-2.06,2.12,2.12,0,0,0-.59-1.68,1.43,1.43,0,0,0-1.49-.35,11.11,11.11,0,0,0-2,.82l-2.43,1.28a10.9,10.9,0,0,1-2.7,1,6.48,6.48,0,0,1-2.84,0,5.69,5.69,0,0,1-2.84-1.71,5.6,5.6,0,0,1-1.31-2.1,6,6,0,0,1-.3-2.53,8.19,8.19,0,0,1,.78-2.74,9.94,9.94,0,0,1,2-2.72,9.13,9.13,0,0,1,2.66-1.89,7.07,7.07,0,0,1,2.77-.67,6.65,6.65,0,0,1,2.68.5,7.19,7.19,0,0,1,2.36,1.61l-3.26,3.72a2.57,2.57,0,0,0-4,0,2.75,2.75,0,0,0-.91,1.81,1.93,1.93,0,0,0,.52,1.55,1.34,1.34,0,0,0,1.44.31,11.78,11.78,0,0,0,2-.87l2.42-1.28a10.07,10.07,0,0,1,2.71-1,6.51,6.51,0,0,1,2.88,0,6.06,6.06,0,0,1,2.89,1.76,5.93,5.93,0,0,1,1.7,4.77Zm3-17.61-2.08-1.63c25.05-31.91,25.05-83.84,0-115.75l2.08-1.63a88.31,88.31,0,0,1,14.54,27.88,105.74,105.74,0,0,1,0,63.25A88.31,88.31,0,0,1,1087.91,571.2Z" transform="translate(-93.72 -143.47)"/><path class="cls-2" d="M999,547.41h1.15a35.49,35.49,0,0,0,19.73-6V481.76a35.69,35.69,0,0,0-19.49-6H1000a35.43,35.43,0,0,0-19.66,6v59.69A35.47,35.47,0,0,0,999,547.41Z" transform="translate(-93.72 -143.47)"/><path class="cls-2" d="M1063.87,505.42a2.3,2.3,0,0,0,1.36-1.4v-.54c-.21-.91-.42-1.81-.62-2.71l-2-9.15a1.7,1.7,0,0,0-1.64-1.37l-7.3-.47v20.73C1057.08,508.81,1060.47,507.1,1063.87,505.42Z" transform="translate(-93.72 -143.47)"/><path class="cls-2" d="M1000,473.44h.33a38,38,0,0,1,19.47,5.5V449.07l-10.08-2.41-.31-.12h-.61a2.46,2.46,0,0,0-1.42,1.39c-1.86,3.5-3.75,7-5.63,10.49a3.87,3.87,0,0,1-.34.55,1.49,1.49,0,0,1-1.31.7c-1.25,0-2.51.07-3.76.14h-.16a2.23,2.23,0,0,1-1.94-1c-2.36-3.41-4.74-6.82-7.1-10.24a1.77,1.77,0,0,0-1.47-.93,2.8,2.8,0,0,0-.84.16l-4.49,1.52v29.61A37.93,37.93,0,0,1,1000,473.44Z" transform="translate(-93.72 -143.47)"/><path class="cls-2" d="M1000.1,549.77c-.41,0-.82,0-1.22,0a38,38,0,0,1-18.51-5.46v20.8l3.21-3.27a2.49,2.49,0,0,1,1.85-.84,3.23,3.23,0,0,1,.73.09c2,.46,3.9.88,5.86,1.31a2.2,2.2,0,0,1,1.74,1.57q1.92,5.79,3.86,11.58a1.75,1.75,0,0,0,1.82,1.32h.43a76.25,76.25,0,0,0,7.84-.52l2.53-.29a1.7,1.7,0,0,0,1.56-1.42q.76-3.6,1.51-7.2c.36-1.72.72-3.43,1.09-5.15a2.1,2.1,0,0,1,1.29-1.56q2.05-.81,4.14-1.59V544.27A37.93,37.93,0,0,1,1000.1,549.77Z" transform="translate(-93.72 -143.47)"/><path class="cls-2" d="M937.44,497.51A1.71,1.71,0,0,0,936,499c-.34,2.72-.7,5.43-1,8.15-.14,1.27-.14,2.56-.23,3.83a.47.47,0,0,0,.37.57l5.16,1.89,6,2.2V495.91Z" transform="translate(-93.72 -143.47)"/><path class="cls-2" d="M1057.57,540.29l.3,0a1.59,1.59,0,0,0,1.61-1.21q2-5.36,3.92-10.73a1.67,1.67,0,0,0-.65-2.14l-9.06-6.69v20.34Z" transform="translate(-93.72 -143.47)"/><path class="cls-2" d="M944.14,530.64l-4,3.71a1.62,1.62,0,0,0-.36,2q2.48,4.83,5,9.65a1.57,1.57,0,0,0,1.45.89h.08V528.63Z" transform="translate(-93.72 -143.47)"/><path class="cls-2" d="M946,474.86a1.64,1.64,0,0,0,0,2.28l.37.48v-3.15Z" transform="translate(-93.72 -143.47)"/><path class="cls-1" d="M954.44,463a4.51,4.51,0,0,1,1.73.36l2.72,1.13,8.79,3.65.11,0s0,0,.07,0l2.88-2,.51-.35c-.27-3.37-.61-7.8-1-12.23a4,4,0,0,1,2.83-4.27l7.25-2.44V433.24a80.61,80.61,0,0,0-34.06,18v19.48l4.93-6.12A4,4,0,0,1,954.44,463Z" transform="translate(-93.72 -143.47)"/><path class="cls-1" d="M976.72,572.14a4,4,0,0,1-2.9,1.28,4.22,4.22,0,0,1-2.08-.58l-9.2-5.19a4,4,0,0,1-2-4.67l.54-2.11c.82-3.21,1.66-6.54,2.5-9.81v0l0,0c-1.49-1.54-3-3.13-4.35-4.53-1.24.29-2.51.57-3.73.84l-1.6.36-2,.45-4.66,1a4.81,4.81,0,0,1-.91.11v22.87a80.61,80.61,0,0,0,34.06,18V568.44l-1.75,1.77Z" transform="translate(-93.72 -143.47)"/><path class="cls-1" d="M949.46,493l0-.1.12-.28c.57-1.39,1.17-2.84,1.78-4.26l0-.07-.06-.07-5.06-6.66v12l3-.55Z" transform="translate(-93.72 -143.47)"/><path class="cls-1" d="M964.28,511.19a35.92,35.92,0,0,0,16.09,30.25V481.75A35.91,35.91,0,0,0,964.28,511.19Z" transform="translate(-93.72 -143.47)"/><path class="cls-1" d="M946.91,519.52c-.08-.41-.15-.82-.23-1.23l-.37-.14v7.27l1.43-1.34C947.47,522.56,947.18,521,946.91,519.52Z" transform="translate(-93.72 -143.47)"/><path class="cls-1" d="M1025.06,451.1l0,.6c.14,3.83.29,7.8.41,11.7a.62.62,0,0,0,0,.18l.08.05c1,.51,1.86,1.05,2.64,1.5l0,0,.06,0,7.9-4.39,2.87-1.59a4.39,4.39,0,0,1,2.18-.62,4.14,4.14,0,0,1,3,1.37l1.73,1.77,6.64,6.78a4.23,4.23,0,0,1,1,1.54l.06.19V451.24a80.56,80.56,0,0,0-33.86-17.95v13.36l1.94.46A4,4,0,0,1,1025.06,451.1Z" transform="translate(-93.72 -143.47)"/><path class="cls-1" d="M1049.12,480.42c-.73,1.23-1.46,2.46-2.2,3.69.48.95,1,1.92,1.62,3l5.15.33v-15a4.88,4.88,0,0,1-.46,1C1051.86,475.8,1050.46,478.14,1049.12,480.42Z" transform="translate(-93.72 -143.47)"/><path class="cls-1" d="M1035.89,511.79a35.77,35.77,0,0,0-16.06-30v59.69A35.87,35.87,0,0,0,1035.89,511.79Z" transform="translate(-93.72 -143.47)"/><path class="cls-1" d="M1045.2,541.33l-.07.1c-.92,1.25-1.87,2.54-2.79,3.81v0a.3.3,0,0,0,0,.11c1.18,3.08,2.37,6.21,3.52,9.24l.89,2.34a4,4,0,0,1-1.41,4.94l-8.79,6.68a4,4,0,0,1-5-.06c-.48-.4-1-.79-1.46-1.18l-.63-.51-2-1.62-5.43-4.38-2.2.81V590.1a80.56,80.56,0,0,0,33.86-18V542.24l-3.83-.41Z" transform="translate(-93.72 -143.47)"/><path class="cls-1" d="M1053.69,470.18v2.27A3.78,3.78,0,0,0,1053.69,470.18Z" transform="translate(-93.72 -143.47)"/><path class="cls-1" d="M1015.69,560.71a2.1,2.1,0,0,0-1.29,1.56c-.37,1.72-.73,3.43-1.09,5.15q-.75,3.6-1.51,7.2a1.7,1.7,0,0,1-1.56,1.42l-2.53.29a76.25,76.25,0,0,1-7.84.52h-.43a1.75,1.75,0,0,1-1.82-1.32q-1.93-5.79-3.86-11.58a2.2,2.2,0,0,0-1.74-1.57c-2-.43-3.91-.85-5.86-1.31a3.23,3.23,0,0,0-.73-.09,2.49,2.49,0,0,0-1.85.84l-3.21,3.27v3.35c1.63-1.65,3.27-3.32,4.89-5l.16-.13h0l.18,0c1.68.41,3.39.78,5,1.13l.88.19h0c1.06,3.2,2.14,6.45,3.19,9.6l.67,2a4.09,4.09,0,0,0,4,2.92h.45a78.12,78.12,0,0,0,8.08-.53l1.71-.19.84-.1a4,4,0,0,0,3.6-3.27c.3-1.44.61-2.87.91-4.31l.6-2.9.17-.81c.3-1.39.6-2.83.9-4.24,1.09-.43,2.14-.84,3.15-1.22v-2.51Q1017.75,559.9,1015.69,560.71Z" transform="translate(-93.72 -143.47)"/><path class="cls-1" d="M1000,473.44a37.93,37.93,0,0,0-19.66,5.48v2.83a35.43,35.43,0,0,1,19.66-6h.31a35.69,35.69,0,0,1,19.49,6v-2.82a38,38,0,0,0-19.47-5.5Z" transform="translate(-93.72 -143.47)"/><path class="cls-1" d="M1000.1,547.42H999a35.47,35.47,0,0,1-18.58-6v2.85a38,38,0,0,0,18.51,5.46c.4,0,.81,0,1.22,0a37.93,37.93,0,0,0,19.73-5.5v-2.82A35.49,35.49,0,0,1,1000.1,547.42Z" transform="translate(-93.72 -143.47)"/><path class="cls-1" d="M1067.52,503c-.07-.28-.13-.57-.2-.85-.14-.6-.28-1.22-.41-1.83-.36-1.66-.73-3.33-1.09-5l-.9-4.16a4,4,0,0,0-3.78-3.22l-1.76-.11-5.69-.37v2.36l7.3.47a1.7,1.7,0,0,1,1.64,1.37l2,9.15c.2.9.41,1.8.62,2.71V504a2.3,2.3,0,0,1-1.36,1.4c-3.4,1.68-6.79,3.39-10.18,5.09v9l9.06,6.69a1.67,1.67,0,0,1,.65,2.14q-2,5.37-3.92,10.73a1.59,1.59,0,0,1-1.61,1.21l-.3,0-3.88-.41v2.36l3.63.39.55,0a3.92,3.92,0,0,0,3.82-2.75l3.92-10.73a4,4,0,0,0-1.46-4.84l-2.06-1.53-8-5.88a.28.28,0,0,1-.11-.09.48.48,0,0,1,0-.18c.12-1.38.19-2.75.24-3.78v0h0l3.65-1.83c2.29-1.15,4.66-2.34,7-3.49a4.73,4.73,0,0,0,2.57-2.83l.1-.33v-1.16Z" transform="translate(-93.72 -143.47)"/><path class="cls-1" d="M984.86,447.79a2.8,2.8,0,0,1,.84-.16,1.77,1.77,0,0,1,1.47.93c2.36,3.42,4.74,6.83,7.1,10.24a2.23,2.23,0,0,0,1.94,1h.16c1.25-.07,2.51-.14,3.76-.14a1.49,1.49,0,0,0,1.31-.7,3.87,3.87,0,0,0,.34-.55c1.88-3.49,3.77-7,5.63-10.49a2.46,2.46,0,0,1,1.42-1.39h.61l.31.12,10.08,2.41v-2.42l-9.4-2.25-.13,0-.41-.16h-1.42l-.34.11a4.79,4.79,0,0,0-2.8,2.53c-1.47,2.77-3,5.59-4.46,8.32l-1.16,2.16h0c-1,0-2,.06-2.92.11l-.53,0h0l-3.54-5.09-3.57-5.15a4.06,4.06,0,0,0-3.4-1.94,4.92,4.92,0,0,0-1.59.29l-3.74,1.26v2.48Z" transform="translate(-93.72 -143.47)"/><path class="cls-1" d="M946.23,546.93a1.57,1.57,0,0,1-1.45-.89q-2.49-4.81-5-9.65a1.62,1.62,0,0,1,.36-2l4-3.71,2.17-2v-3.21l-2.17,2-1.6,1.48-1,.9-3,2.81a4,4,0,0,0-.84,4.84l5,9.65a3.93,3.93,0,0,0,3.54,2.16h.08v-2.36Z" transform="translate(-93.72 -143.47)"/><path class="cls-1" d="M940.31,513.45l-5.16-1.89a.47.47,0,0,1-.37-.57c.09-1.27.09-2.56.23-3.83.29-2.72.65-5.43,1-8.15a1.71,1.71,0,0,1,1.44-1.5l8.87-1.6v-2.39c-2,.35-4,.71-5.93,1.07l-3.35.61a4,4,0,0,0-3.36,3.52l-.24,1.91c-.26,2.06-.53,4.18-.76,6.28-.09.84-.13,1.66-.16,2.45,0,.51,0,1-.08,1.47a2.83,2.83,0,0,0,1.92,2.94l2.87,1.05,2.28.84,3.3,1.21,3.51,1.28v-2.5Z" transform="translate(-93.72 -143.47)"/><path class="cls-1" d="M945.94,477.14a1.64,1.64,0,0,1,0-2.28l.32-.39v-3.75l-2.15,2.66a4,4,0,0,0-.09,5.18l1.85,2.43.39.52v-3.89Z" transform="translate(-93.72 -143.47)"/><path class="cls-1" d="M949.39,525.76a2.13,2.13,0,0,0,.68-2c-.35-2-.72-4-1.09-6a2.07,2.07,0,0,0-1.41-1.68l-1.26-.46v2.5l.37.14c.08.41.15.82.23,1.23.27,1.49.56,3,.83,4.56l-1.43,1.34v3.21Z" transform="translate(-93.72 -143.47)"/><path class="cls-1" d="M949.77,495.28a2.35,2.35,0,0,0,1.9-1.53c.62-1.51,1.24-3,1.89-4.51a2.31,2.31,0,0,0-.32-2.5q-3.48-4.56-6.93-9.12v3.89l5.06,6.66.06.07,0,.07c-.61,1.42-1.21,2.87-1.78,4.26l-.12.28,0,.1-.11,0-3,.55v2.39Z" transform="translate(-93.72 -143.47)"/><path class="cls-1" d="M953.07,466.08a1.73,1.73,0,0,1,1.37-.74,2.07,2.07,0,0,1,.83.19q5.75,2.37,11.5,4.77a2.9,2.9,0,0,0,1,.22,2.39,2.39,0,0,0,1.4-.48l3.38-2.34a2.17,2.17,0,0,0,1-2.08q-.5-6.14-1-12.26a1.63,1.63,0,0,1,1.23-1.86l6.5-2.19v-2.48l-7.25,2.44a4,4,0,0,0-2.83,4.27c.35,4.43.69,8.86,1,12.23l-.51.35-2.88,2s-.05,0-.07,0l-.11,0-8.79-3.65-2.72-1.13a4.51,4.51,0,0,0-1.73-.36,4,4,0,0,0-3.2,1.61l-4.93,6.12v3.75Z" transform="translate(-93.72 -143.47)"/><path class="cls-1" d="M964.28,511.19a35.91,35.91,0,0,1,16.09-29.44v-2.83a38.18,38.18,0,0,0,0,65.37v-2.85A35.92,35.92,0,0,1,964.28,511.19Z" transform="translate(-93.72 -143.47)"/><path class="cls-1" d="M975.05,570.49a1.75,1.75,0,0,1-1.23.58,1.91,1.91,0,0,1-.93-.28l-9.19-5.18a1.67,1.67,0,0,1-.89-2.05q1.52-6,3-11.92a2.23,2.23,0,0,0-.6-2.27l-4.35-4.53a2.16,2.16,0,0,0-1.61-.73,2.36,2.36,0,0,0-.58.07l-5.34,1.2-6.66,1.49a1.9,1.9,0,0,1-.4,0v2.36a4.81,4.81,0,0,0,.91-.11l4.66-1,2-.45,1.6-.36c1.22-.27,2.49-.55,3.73-.84,1.34,1.4,2.86,3,4.35,4.53l0,0v0c-.84,3.27-1.68,6.6-2.5,9.81l-.54,2.11a4,4,0,0,0,2,4.67l9.2,5.19a4.22,4.22,0,0,0,2.08.58,4,4,0,0,0,2.9-1.28l1.9-1.93,1.75-1.77v-3.35Z" transform="translate(-93.72 -143.47)"/><path class="cls-1" d="M1051.9,512.76c-.06,1.23-.13,2.47-.23,3.69a2.45,2.45,0,0,0,1.06,2.38l1,.71v-9l-.47.24A2.2,2.2,0,0,0,1051.9,512.76Z" transform="translate(-93.72 -143.47)"/><path class="cls-1" d="M1035.89,511.79a35.87,35.87,0,0,1-16.06,29.66v2.82a38.18,38.18,0,0,0,0-65.33v2.82A35.77,35.77,0,0,1,1035.89,511.79Z" transform="translate(-93.72 -143.47)"/><path class="cls-1" d="M1045.38,539l-.29,0a2.11,2.11,0,0,0-1.75.92l-2.91,4a2.51,2.51,0,0,0-.34.65,2.3,2.3,0,0,0,.08,1.69l4.41,11.57a1.71,1.71,0,0,1-.64,2.24l-8.79,6.67a1.71,1.71,0,0,1-1.05.39,1.73,1.73,0,0,1-1.07-.41l-2.09-1.68-7.45-6a2.25,2.25,0,0,0-1.4-.55,1.92,1.92,0,0,0-.66.12l-1.6.58v2.51l2.2-.81,5.43,4.38,2,1.62.63.51c.49.39,1,.78,1.46,1.18a4,4,0,0,0,5,.06l8.79-6.68a4,4,0,0,0,1.41-4.94l-.89-2.34c-1.15-3-2.34-6.16-3.52-9.24a.3.3,0,0,1,0-.11v0c.92-1.27,1.87-2.56,2.79-3.81l.07-.1,4.66.5,3.83.41v-2.36Z" transform="translate(-93.72 -143.47)"/><path class="cls-1" d="M1021.23,449.4a1.68,1.68,0,0,1,1.48,1.78q.24,6.15.44,12.29a2.4,2.4,0,0,0,1.33,2.23c.87.47,1.72,1,2.57,1.46a2.45,2.45,0,0,0,1.24.36,2.41,2.41,0,0,0,1.2-.34l10.77-6a2.21,2.21,0,0,1,1-.32,1.82,1.82,0,0,1,1.31.67l8.37,8.54a2,2,0,0,1,.44.71,1.69,1.69,0,0,1-.21,1.49q-3.18,5.34-6.34,10.68a2,2,0,0,0-.12,2c.57,1.14,1.19,2.26,1.83,3.37a2,2,0,0,0,1.7,1l5.41.36v-2.36l-5.15-.33c-.61-1.06-1.14-2-1.62-3,.74-1.23,1.47-2.46,2.2-3.69,1.34-2.28,2.74-4.62,4.11-6.93a4.88,4.88,0,0,0,.46-1v-2.27l-.06-.19a4.23,4.23,0,0,0-1-1.54l-6.64-6.78-1.73-1.77a4.14,4.14,0,0,0-3-1.37,4.39,4.39,0,0,0-2.18.62l-2.87,1.59-7.9,4.39-.06,0,0,0c-.78-.45-1.69-1-2.64-1.5l-.08-.05a.62.62,0,0,1,0-.18c-.12-3.9-.27-7.87-.41-11.7l0-.6a4,4,0,0,0-3.29-4l-1.94-.46v2.42Z" transform="translate(-93.72 -143.47)"/><path class="cls-3" d="M960.93,579.7" transform="translate(-93.72 -143.47)"/><text class="cls-4" transform="translate(696.98 1321.33)">2021</text></svg>