<svg id="Layer_3" data-name="Layer 3" xmlns="http://www.w3.org/2000/svg" viewBox="0 0 1252.66 1551.93"><defs><style>.cls-1{fill:#fff;}</style></defs><path class="cls-1" d="M888.84,1013.89q44.89-67.33,128.26-146.42,53.42-51.32,78-83.37t24.59-68.41q0-47-40.62-73.74t-102.6-26.73q-68.44,0-128.26,39.55T754.17,760.58L373.67,570.33Q459.14,407.91,627,316T1040.62,224q260.78,0,423.25,106.88t162.46,301.41q0,89.77-31,157.11t-73.75,113.3q-42.78,46-109,101.54-68.43,59.87-98.33,96.19t-29.92,81.23H844Q844,1081.24,888.84,1013.89Zm-27.79,687.26q-79.11-74.81-79.09-181.7,0-109,79.09-180.63t203.08-71.61q123.94,0,203.08,71.61t79.09,180.63q0,106.9-79.09,181.7T1064.13,1776Q940.13,1776,861.05,1701.15Z" transform="translate(-373.67 -224.04)"/></svg>